<?xml version="1.0" encoding="utf-8"?>
<!-- Generator: Adobe Illustrator 26.0.0, SVG Export Plug-In . SVG Version: 6.00 Build 0)  -->
<svg version="1.1" id="Calque_1" xmlns="http://www.w3.org/2000/svg" xmlns:xlink="http://www.w3.org/1999/xlink" x="0px" y="0px"
	 viewBox="0 0 138.1 156.8" style="enable-background:new 0 0 138.1 156.8;" xml:space="preserve">
<style type="text/css">
	.st0{fill:#E95729;}
	.st1{fill:#B2431F;}
</style>
<g>
	<path class="st0" d="M88,35c3.3,8.5,6.6,17.1,9.9,25.6c5,15.7,10.8,31.2,17,46.5c2.2,6.4,4.4,12.9,6.7,19.2c1.4,3.8,1.8,7.8-0.6,11
		c-2.2,2.9-1.7,5.4-0.7,8.3c0.8,2.4,1.6,4.7,2.3,7.1c0.5,1.7-0.1,3.1-1.6,3.7c-1.7,0.7-3.2,0.2-4.1-1.6c-0.7-1.3-1.4-2.6-2.1-4
		c-2-4-3.9-7.7-9.2-8.8c-3.5-0.7-5.3-4.2-6.6-7.7c-2.1-5.9-4.3-11.8-6.6-18c-15.6,5-30.9,6-46.9,1.4c-1.9,5.2-4,10.3-5.6,15.4
		c-1.7,5.3-4.7,9.1-10.4,10.3c-4.1,0.9-4,5.3-6.2,7.9c-1.7,2-1.9,6.5-5.6,5.1c-4.1-1.5-1.4-5.2-0.7-7.8c1.2-4.3,2.7-8.1-0.6-12.5
		c-2.1-2.8-1.1-6.7,0.2-10.1c1.9-5,3.5-10.1,5.5-15c1.1-2.7,0.6-4.1-1.7-5.8C13,100,7.1,93.3,2.3,85.6c-3.8-5.9-2.8-11.7,2.6-15.3
		c5.4-3.6,11.5-2.1,15.4,3.7c2.9,4.3,6,8.3,10.7,12c6.4-17,12.6-33.6,18.9-50.3c2,12.5,6.6,17.5,18.1,19.4c-5,14-10,28.1-15,42.1
		c9.6,3.1,23.3,2.2,31.7-1.9c-4.8-13.3-9.7-26.7-14.5-40.1C81.4,53.7,87.6,46.6,88,35z"/>
	<path class="st1" d="M114.9,107.1c-6.3-15.3-12-30.7-17-46.5c6.5-1.5,12.6-0.4,18.2,3c3.2,2,5,1.3,6.6-2c0.8-1.6,2.1-4.1,4.4-2.4
		c2.5,1.8,0.1,3.4-1,4.9c-1.1,1.4-2.2,2.9-3.5,4.5c3.3,4.6,5.5,9.6,5.9,15.2c0.2,3.3,2.9,2.6,4.8,3.1c2,0.6,5.1,0.2,4.7,3.2
		c-0.4,3.3-3.6,2-5.3,1.4c-3.7-1.3-5.3-0.1-6.6,3.4C124.1,100.5,120.3,104.6,114.9,107.1z M113,70c-0.1-1.9-1.4-2.8-3.2-2.9
		c-1.4-0.1-2.6,0.7-2.8,2.2c-0.2,2,1.2,3,3,3.2C111.4,72.6,112.8,71.9,113,70z M120.8,92.6c0-1.5-0.6-2.7-2.3-2.6
		c-2.1,0-3.3,1.5-3.4,3.5c-0.1,1.4,1,2.5,2.5,2.4C119.5,95.7,120.6,94.5,120.8,92.6z"/>
	<path class="st1" d="M67.9,55.2c-11.5-1.9-16.1-6.9-18.1-19.4c1-7.7,4.9-13.5,11.9-17.1c5.1-1.5,10.1-1.8,15.2,0.1
		c6.1,3.7,9.9,9,11.1,16.1c-0.4,11.6-6.6,18.6-17.9,20.3C69.4,55.3,68.6,55.2,67.9,55.2z M69,47.2c6-0.1,10.8-4.8,10.8-10.7
		c0.1-6-5-11-11.1-11C62.9,25.5,58,30.4,58,36.2C57.9,42.3,62.9,47.3,69,47.2z"/>
	<path class="st0" d="M76.8,18.9c-5-1.9-10.1-1.6-15.2-0.1c0-3.7-0.1-7.3,0-11C61.9,3.1,64.9,0.1,69,0c4.2-0.1,7.5,2.9,7.8,7.4
		C77.1,11.2,76.9,15.1,76.8,18.9z"/>
</g>
</svg>
