<svg id="Calque_1" data-name="Calque 1" xmlns="http://www.w3.org/2000/svg" viewBox="0 0 500.27 614.17"><defs><style>.cls-1{fill:#fff;}</style></defs><path class="cls-1" d="M293.42.17c5.64,2.92,7.43,7.49,6.46,13.7-2,13-3.71,26-5.66,39-1,6.41-5.71,10.12-11.33,9.23s-8.89-5.46-8.08-11.8c1.68-13,3.67-26,5.37-39A15.22,15.22,0,0,1,287.42,0Z"/><path class="cls-1" d="M409,434a47.05,47.05,0,0,0,4.05-3.47c8.48-9.17,17.33-18,25.11-27.78,2.58-3.23,3.21-8.67,3.3-13.13.42-19.65.33-39.32.38-59,0-11.5-.28-23,0-34.49.32-11.77,7-20,17.48-22.69,9.83-2.5,22.21,2.21,27.34,11.21a26,26,0,0,1,3.49,12.27c-.06,34.65-.47,69.29-.89,103.94-.19,15-7.35,27.49-16.92,38q-39.47,43.43-80.21,85.69c-7.55,7.87-11.35,16-11.08,27,.48,19-.24,38-.23,57,0,4-1.13,5.67-5.37,5.56-11.16-.28-22.33-.27-33.49-.21-3.31,0-4.72-1-4.76-4.54-.3-26-.86-52-1.16-78-.15-13.21,6.84-23.37,14.89-33,2.89-3.44,6.1-6.62,8.9-10.12,3.41-4.26,3-6.09-1.61-10.45s-6.78-4.68-10.66-.86c-5,4.89-9.4,10.33-14.22,15.39-11.28,11.88-16.15,25.91-15.64,42.3.69,22.14.82,44.3.91,66.46.06,14.23,1.56,12.31-12,12.59-9.32.2-18.66-.24-28-.12-2.87,0-3.94-1-4-3.67-.25-7.82-.7-15.63-.77-23.45-.22-23.33,0-46.66-.5-70-.44-21.78,7.33-40,22.41-55.36,23.6-24,47.37-47.77,71-71.73,7.72-7.83,15.18-15.9,22.71-23.9,5.79-6.15,12.47-10.15,21.26-8.42,16.16,3.18,23.14,23.23,12.62,36.81-5,6.43-10.69,12.31-16.25,18.28-7.44,8-7.51,7.94-1.38,16.94C406.66,430.68,407.69,432.12,409,434Z"/><path class="cls-1" d="M213.68,347c22.61-28.66,47.34-54.38,71.47-82.29l12.23,25c12.65-6.53,29.25-30.53,28.28-54.83-1.25-31.18-22.27-58.71-50.64-66.94-36.35-10.54-65.18,4.57-81.66,28.66-15.6,22.8-14.91,56.53,1.06,76.14,4-4.16,8.09-8.17,11.88-12.43,1.8-2,3.28-2.37,5.52-.85q7.65,5.18,15.48,10.06c2.95,1.85,3.37,3.37.8,6.21q-22.26,24.6-44.16,49.53c-2.17,2.44-3.84,3.06-6.58.61-35.46-31.79-50.23-71-39.61-117.75,7.73-34,28.9-59,59.8-74.87,38.88-20,78-19.12,116.21,2.07C362.13,162.12,385.24,218,368.49,271c-13.51,42.77-43.79,69.09-87.2,79.82-21.63,5.34-43.31,4.15-64.61-2.53C216.06,348.09,215.49,347.77,213.68,347Z"/><path class="cls-1" d="M253.08,255.61c-16.72-.25-30.45-14.34-30.14-30.9.31-16,14.84-29.17,31.71-28.74,18,.47,31.28,13.79,31,31.11C285.35,244,271.76,255.89,253.08,255.61Z"/><path class="cls-1" d="M347.6,79.93c-7.16-.15-11.89-7.43-8.92-13.56q10.14-20.88,20.65-41.59c2.82-5.54,8.33-7.16,13.46-4.41s6.46,7.39,3.68,13.16c-6.35,13.2-12.81,26.33-19.12,39.54A11.13,11.13,0,0,1,347.6,79.93Z"/><path class="cls-1" d="M436.4,67.55c-2.12,3.62-3.25,6.72-5.34,8.9q-13.63,14.24-27.77,28c-4.86,4.76-9.5,5.2-13.88,1.93-4.79-3.58-5.5-9.29-.92-14.39,5.89-6.56,12.38-12.56,18.62-18.8,4.23-4.24,8.32-8.64,12.78-12.64,2.85-2.57,6.76-4,10.06-1.44C432.58,61.18,434.18,64.55,436.4,67.55Z"/><path class="cls-1" d="M467.66,113.35c7.91.31,12.5,8.29,8.92,13.68a33.89,33.89,0,0,1-8.89,8.48c-7.48,5.25-15.24,10.12-23,15a49.28,49.28,0,0,1-8.41,4.28c-4.31,1.67-8,.06-10.52-3.49s-2.65-7.56.16-11.15a20.56,20.56,0,0,1,4.74-4.38c9.87-6.49,19.77-12.93,29.79-19.19A48.09,48.09,0,0,1,467.66,113.35Z"/><path class="cls-1" d="M461.17,221.83c-7.68-.25-11.23-3-12.18-8.19s1.17-9.2,7.27-10.72c11.12-2.78,22.41-5,33.7-7,4.91-.87,8.91,2.39,10,7a9.48,9.48,0,0,1-6,11.25,99,99,0,0,1-11.12,2.84C475.07,218.82,467.27,220.49,461.17,221.83Z"/><path class="cls-1" d="M206.85.14c-5.63,2.93-7.42,7.5-6.45,13.7,2,13,3.7,26,5.66,39,1,6.41,5.7,10.12,11.32,9.23s8.9-5.46,8.08-11.8c-1.67-13-3.66-26-5.36-39A15.24,15.24,0,0,0,212.85,0Z"/><path class="cls-1" d="M91.28,434a45.61,45.61,0,0,1-4.06-3.47c-8.48-9.17-17.32-18.05-25.1-27.78-2.59-3.23-3.22-8.67-3.31-13.13-.41-19.65-.33-39.31-.38-59,0-11.5.29-23,0-34.49-.32-11.77-7-20-17.49-22.69-9.83-2.5-22.2,2.22-27.34,11.21a25.88,25.88,0,0,0-3.48,12.27c.06,34.65.46,69.3.89,103.94.18,15,7.34,27.49,16.91,38q39.47,43.44,80.21,85.69c7.55,7.87,11.36,16,11.08,27-.47,19,.24,38,.24,57,0,4,1.13,5.67,5.37,5.56,11.16-.27,22.32-.27,33.49-.21,3.31,0,4.71-1,4.75-4.54.3-26,.86-52,1.16-78,.15-13.21-6.83-23.38-14.89-33-2.89-3.43-6.1-6.61-8.9-10.12-3.41-4.26-3-6.09,1.62-10.45s6.78-4.67,10.66-.86c5,4.89,9.4,10.33,14.21,15.4,11.28,11.87,16.15,25.9,15.64,42.29-.68,22.14-.82,44.3-.91,66.46-.06,14.23-1.56,12.31,12,12.6,9.33.19,18.66-.24,28-.13,2.87,0,4-1,4-3.66.25-7.82.7-15.64.77-23.46.22-23.33,0-46.66.51-70,.43-21.78-7.34-40-22.41-55.36-23.6-24-47.38-47.77-71-71.73-7.71-7.82-15.17-15.9-22.71-23.9-5.78-6.15-12.47-10.14-21.26-8.42C73.45,360.33,66.46,380.38,77,394c5,6.43,10.7,12.31,16.25,18.29,7.44,8,7.52,7.93,1.38,16.93C93.61,430.65,92.58,432.09,91.28,434Z"/><path class="cls-1" d="M152.68,79.9c7.16-.15,11.88-7.43,8.91-13.55q-10.14-20.89-20.65-41.6c-2.81-5.54-8.33-7.16-13.46-4.4S121,27.74,123.8,33.5c6.35,13.2,12.81,26.34,19.12,39.55A11.16,11.16,0,0,0,152.68,79.9Z"/><path class="cls-1" d="M63.87,67.52c2.13,3.63,3.26,6.72,5.34,8.9,9.09,9.49,18.38,18.81,27.77,28,4.86,4.76,9.51,5.2,13.89,1.93,4.79-3.58,5.5-9.28.91-14.39-5.88-6.56-12.38-12.56-18.61-18.8-4.24-4.24-8.33-8.64-12.78-12.64-2.86-2.56-6.76-4-10.07-1.44C67.7,61.16,66.09,64.52,63.87,67.52Z"/><path class="cls-1" d="M32.61,113.33c-7.9.3-12.5,8.28-8.92,13.67a33.89,33.89,0,0,0,8.89,8.48c7.49,5.25,15.24,10.12,23,15A49,49,0,0,0,64,154.76c4.31,1.68,8,.06,10.51-3.49s2.65-7.56-.16-11.14a19.94,19.94,0,0,0-4.74-4.38c-9.86-6.49-19.77-12.93-29.78-19.19A45.73,45.73,0,0,0,32.61,113.33Z"/><path class="cls-1" d="M39.1,221.8c7.69-.25,11.24-3,12.18-8.19s-1.16-9.2-7.26-10.72c-11.13-2.78-22.41-5-33.71-7-4.91-.88-8.9,2.38-10,7a9.46,9.46,0,0,0,6,11.25A100.11,100.11,0,0,0,17.43,217C25.21,218.79,33,220.47,39.1,221.8Z"/></svg>