<?xml version="1.0" encoding="utf-8"?>
<!-- Generator: Adobe Illustrator 26.0.0, SVG Export Plug-In . SVG Version: 6.00 Build 0)  -->
<svg version="1.1" id="Calque_1" xmlns="http://www.w3.org/2000/svg" xmlns:xlink="http://www.w3.org/1999/xlink" x="0px" y="0px"
	 viewBox="0 0 800 800" style="enable-background:new 0 0 800 800;" xml:space="preserve">
<style type="text/css">
	.st0{fill:#FF4900;}
	.st1{fill:#E84200;}
	.st2{fill:#D13B00;}
</style>
<rect x="597.9" y="381.8" class="st0" width="37.7" height="37.8"/>
<path class="st0" d="M717,224.7c-5.7-9.3-13.8-16.9-23.4-22c-86.6-47.8-173.2-95.6-259.8-143.3c-21.3-12.8-48-12.6-69.1,0.6
	c-34.5,19.5-206.9,114.1-258.3,142.7c-20,10-32.3,30.8-31.5,53.1v288.5c-0.2,10.7,2.3,21.2,7.5,30.5c5.7,9.5,14,17.3,23.8,22.5
	c51.4,28.5,223.9,123.2,258.3,142.7c6.3,4,13.2,6.8,20.2,8.4c0.5,0.1,0.9,0.2,1.4,0.3c0.6,0.1,1.2,0.2,1.8,0.3
	c0.7,0.1,1.3,0.2,2,0.3c0.2,0,0.5,0.1,0.7,0.1c0.7,0.1,1.5,0.2,2.2,0.3c0.8,0.1,1.5,0.1,2.2,0.2c13.2,0.9,26.7-2.2,38.5-9.3
	c86.5-47.8,173.1-95.6,259.7-143.3c1.7-0.9,3.3-1.8,4.9-2.9c0,0,0,0,0.1,0c7.2-4.7,13.4-10.9,18.1-18.3c0.3-0.4,0.6-0.9,0.8-1.3
	c5.2-9.3,7.8-19.8,7.5-30.5V255.8h0.2C725.2,244.9,722.5,234.2,717,224.7z M691.7,419.6v30.9h-25.2v25.2h-31v-25.2h-37.7v25.2h-31
	v-25.2h-25.2v-30.9h25.2v-37.8h-25.2v-31h25.2v-25.2h31v25.2h37.7v-25.2h31v25.1h25.2v31h-25v37.8H691.7z M504.2,578.8
	c-99.4,57.5-226.6,23.6-284.2-75.9c0,0,0,0,0-0.1c-18-31.3-27.5-66.8-27.5-102.9c0.4-73.5,39.6-141.4,103.1-178.4
	c99.1-57.8,226.3-24.2,284.1,74.9l-90.4,51.8c-9.2-15.9-22.6-29.1-38.6-38.1c-49.6-27.9-112.4-10.3-140.3,39.3
	c-18.4,32.7-17,71.1,0.3,101.5c8.9,15.7,22.1,29.3,39,38.8c49.4,27.8,111.8,10.5,139.9-38.6l90.5,51.7
	C561.8,534.4,535.7,560.6,504.2,578.8z"/>
<rect x="597.9" y="381.8" class="st1" width="37.7" height="37.8"/>
<path class="st1" d="M724.9,544.2V255.8c0.2-10.9-2.5-21.6-8-31.1c-0.9-1.5-2.2-2.6-3.2-4L400,400l89.6,51.2l90.5,51.7l133.7,76.4
	c1-1,1.9-2.1,2.7-3.2c0.3-0.4,0.7-0.9,1-1.3C722.6,565.4,725.2,554.9,724.9,544.2z M691.8,381.8h-25v37.8h25v30.9h-25.2v25.2h-31
	v-25.2h-37.7v25.2h-31v-25.2h-25.2v-30.9h25.2v-37.8h-25.2v-31h25.2v-25.2h31v25.2h37.7v-25.2h31v25.1h25.2V381.8z"/>
<path class="st2" d="M310.7,451l89.3-51l89.6,51.2c-28.1,49.1-90.5,66.4-139.9,38.6C332.8,480.3,319.6,466.7,310.7,451z"/>
<path class="st2" d="M713.7,579.3c-4.2,5.9-9.4,11-15.3,15c0,0,0,0-0.1,0c-1.5,1-3.1,2-4.8,2.9c-86.6,47.7-173.1,95.5-259.7,143.3
	c-11.8,7.1-25.4,10.2-38.6,9.3c-0.8,0-1.5-0.1-2.2-0.2c-0.8-0.1-1.5-0.2-2.2-0.3c-0.2,0-0.5-0.1-0.7-0.1c-0.7-0.1-1.3-0.2-2-0.3
	c-0.6-0.1-1.2-0.2-1.8-0.3c-0.5-0.1-0.9-0.2-1.4-0.3c-7-1.6-13.8-4.4-20-8.4c-34.5-19.5-206.9-114.1-258.3-142.6
	c-8-4.4-14.9-10.6-20.2-18L220,502.9c0,0,0,0,0,0.1c57.5,99.4,184.8,133.4,284.2,75.9c31.5-18.2,57.7-44.4,75.9-75.9L713.7,579.3z"
	/>
</svg>
