<?xml version="1.0" encoding="utf-8"?>
<!-- Generator: Adobe Illustrator 26.0.0, SVG Export Plug-In . SVG Version: 6.00 Build 0)  -->
<svg version="1.1" id="Calque_1" xmlns="http://www.w3.org/2000/svg" xmlns:xlink="http://www.w3.org/1999/xlink" x="0px" y="0px"
	 viewBox="0 0 1024 1024" style="enable-background:new 0 0 1024 1024;" xml:space="preserve">
<style type="text/css">
	.st0{fill:url(#SVGID_1_);}
	.st1{fill:#602C1B;}
	.st2{fill:#340E0B;}
	.st3{fill:#6E331E;}
	.st4{fill:#FCF1DB;}
	.st5{fill:#DB724F;}
	.st6{fill:#BA563C;}
	.st7{fill:#FCB47A;}
	.st8{fill:url(#SVGID_00000090274475767915871860000003540420681545144226_);}
	.st9{fill:#160808;}
	.st10{fill:url(#SVGID_00000005251711220288612170000001242451913023684488_);}
	.st11{fill:#BD8769;}
	.st12{fill:url(#SVGID_00000069389569433814062480000008682835118105295771_);}
	.st13{fill:url(#SVGID_00000011742328961597936440000017870430326379505340_);}
	.st14{fill:#E7C5AC;}
	.st15{fill:url(#SVGID_00000074423199458807980300000011056386000916167296_);}
</style>
<linearGradient id="SVGID_1_" gradientUnits="userSpaceOnUse" x1="530.8228" y1="1036.0699" x2="497.8764" y2="118.766">
	<stop  offset="0" style="stop-color:#160001"/>
	<stop  offset="1" style="stop-color:#612A1A"/>
</linearGradient>
<path class="st0" d="M952.6,1024H84.4c22-27.9,70.1-60.4,101.4-78.1c8.8-5.1,20.5-10.2,29.9-16.3C85.2,836.8,0,684.3,0,512
	C0,229.2,229.2,0,512,0s512,229.2,512,512c0,169.1-82,319.1-208.4,412.3c6.8,5.7,15.6,9.5,23.2,13.9c9,5.2,17.9,10.5,26.8,15.8
	C897.3,973.2,927.5,996.7,952.6,1024z"/>
<path class="st1" d="M557,417.9c2.3,1.2,15.3,20.4,16.3,23.3c-0.3-0.1-0.8-0.3-1.2-0.4C566.8,437.7,558.8,423.4,557,417.9z"/>
<path class="st2" d="M610.7,459.6l3.8-0.2v0.6l-3.1,0.3l-0.2,0.5c1.2,0.8,2.7-0.1,3.5,0.7c-0.3,1.1-0.6,1.7-1.3,2.6
	c-0.9,1.2-0.9,1.9-1.1,3.3c-0.2,1-0.3,1.8-0.9,2.7c8.8-0.2,17.6-1.7,26.4-1.9l-0.4-0.4l0.3-0.3l-0.5-2.3l0.5-0.1
	c0.3,0.9,0.6,1.7,0.7,2.5c3.6,1.9,14.7-1.1,20.5,1.3c-8,0.6-16.1,0-24.2,0.3c-7.2,0.2-14.1,1.3-21.2,2c-1.5,0.1-4.1,0.8-5.3-0.1
	C609.3,469.6,609.9,462.3,610.7,459.6z"/>
<path class="st3" d="M416,274.7c6.5,1.2,16.3,3.8,21.9,7.2l-0.4,0.7c-7.2-0.1-14.3,1.6-21.6,1.6L416,274.7z"/>
<path class="st4" d="M460.3,143.2h0.1c1.6-0.1,2-0.2,3.3,0.8v0.9c-2.2,2.6-14.7,4.8-18.7,6.3c-7,2.8-13.5,6.6-19.9,10.6
	c-0.8,0.3-1.4,0.5-2.2,0.6l-0.3-0.5c0.2-0.3,0.4-0.6,0.6-0.9C430.6,151.9,449,144.9,460.3,143.2z"/>
<path class="st2" d="M761.4,383.8c1.3,1.1,7.8,19.9,13.1,26c3,3.5,7.4,5.4,11,8.3l0.4,0.3c-7.7,0.2-13.7-2.6-20.5-5.8
	C764.9,402.6,763.1,393.6,761.4,383.8z"/>
<path class="st5" d="M318.5,566.1c3.3,11.7,7.6,22.1,14.4,32.2c-2-0.5-3.9-1.1-5.7-2.1c-5.9-3.4-10.5-9.7-12.1-16.3
	C313.7,574.1,315.5,570.8,318.5,566.1z"/>
<path class="st5" d="M629.3,433c6,9.8,12.5,18.7,22.5,24.8c-6.9,0.2-13.9,0.2-20.8,0.2c-3.1-3.2-4.7-6.4-6.5-10.5
	C625.6,442.8,627.5,437.5,629.3,433z"/>
<path class="st1" d="M367.9,244.8l0.3,0.2c-1.2,4.1-3.9,8.3-5.9,12.2c-1.5,0.2-3,0.5-4.5,0.8s-3,0.7-4.5,1.1s-2.9,0.9-4.4,1.4
	s-2.9,1-4.3,1.6s-2.8,1.2-4.2,1.8c-1.4,0.7-2.8,1.3-4.1,2.1c-1.4,0.7-2.7,1.5-4,2.3s-2.6,1.7-3.8,2.5l-0.3-0.6c0.6-2.5,2.9-5,4.5-7
	C342,251.8,353.3,246.3,367.9,244.8z"/>
<path class="st6" d="M624.3,420.8c1.5,4.1,3.5,8.1,5,12.2c-1.8,4.5-3.7,9.8-4.8,14.5c1.8,4,3.4,7.3,6.5,10.5l-10.6,0.7
	c-1.9,0.4-4.2,0.1-5.9,0.7l-3.8,0.2c-1.5,0.3-2.8,0.4-4.3,0.3c-0.1-0.2-0.3-0.4-0.3-0.6c0.1-1.3,1.7-3.9,2.2-5.2
	c2.8-6.6,4.6-13.4,3.8-20.7l0.5-1.1l1.1-0.4c0.4,2.7,0.8,5.2,1.6,7.9C621.4,434.2,623.4,428.8,624.3,420.8z"/>
<path class="st7" d="M624.5,447.5c1.8,4,3.4,7.3,6.5,10.5l-10.6,0.7l-1-0.2l-0.2-0.7C620.4,454.2,622.8,450.9,624.5,447.5z"/>
<path class="st1" d="M748.8,443l0.9-0.2c0.5,1.9-1.1,5.6-1.9,7.4c-1.9,4.5-9.1,8.2-13.4,9.9c-5.9,2.4-12.3,3.5-18.2,0.8
	c-11-5-17.9-16-22.2-26.9c-1.4-3.5-7.4-18-6.2-20.6c1.8,2.8,2.8,5.9,4.2,8.9c3.3,6.6,7.3,11.9,12.3,17.3
	c6.4,6.2,16.6,10.7,25.5,10.6C736.6,450.1,744,447.9,748.8,443z"/>
<path class="st1" d="M415.8,986.1c0.2-2.2,0-4.4,0.1-6.6c0.2-2.6,0.7-5.4,2.8-7.2c1.7-1.4,4.4-2,6.6-1.7c5.5,0.7,6.6,7.8,9.4,11.4
	c0.2,0.2,0.4,0.5,0.5,0.7c0.1,3-0.1,6.6,1.4,9.3c-1.4,5.9,2.5,24.6,2.9,32.1h-18c-1-9.8-1.3-20.6-3.6-30.1
	C417.4,991.2,416.6,988.7,415.8,986.1z"/>
<path class="st1" d="M606,984.9c1.7-5,3.2-11.1,8.3-13.7c1.6-0.8,3.5-1.3,5.2-0.7c2.7,1,4.3,3.9,5.4,6.4c1.2,2.8,0.9,5.2,1.2,8.1
	c-0.9,2.8-2.5,6.1-1.2,8.9l-0.8,0.3c-2.4,7.5-2.9,21.5-3.6,29.7h-17.9c0.3-6.2,3.6-27.1,2.5-31.3C605.8,990,606,987.6,606,984.9z"/>
<path class="st3" d="M425.6,296c12.5,1.3,18.8,1,30.3,7.7c8.7,5.1,15.6,13.4,20.4,22.2c1.4,2.5,2.3,5.2,3.7,7.7
	c1.5,2.7,4.4,5.4,5.2,8.4c-0.7,0.2-1.1,0.2-1.8,0c-20.8-5.4-36-18.5-49.2-35C431.2,303.4,427.9,299.9,425.6,296z"/>
<path class="st3" d="M368,274c0.3,0.5,0.4,0.4,0.1,1.1c-0.2,0.5-0.6,0.9-0.9,1.3c-7.2,12.5-5.4,28.3-1.8,41.6
	c-7.4,6.1-11.4,18.9-20.3,22.6c-0.9-1.1-1.7-2.2-2.3-3.4c-4.3-9-3-23.7,0.1-32.8C347.4,291.3,355.5,280.3,368,274z"/>
<linearGradient id="SVGID_00000034773075002528313700000015220542083017362827_" gradientUnits="userSpaceOnUse" x1="421.4549" y1="1046.4027" x2="423.8255" y2="1005.4609" gradientTransform="matrix(1 0 0 1 0 -54)">
	<stop  offset="0" style="stop-color:#774836"/>
	<stop  offset="1" style="stop-color:#A57259"/>
</linearGradient>
<path style="fill:url(#SVGID_00000034773075002528313700000015220542083017362827_);" d="M418,993.9c-3.1-0.6-6.1-1.7-8.7-3.4
	c-5-3.3-7.9-8.2-8.9-14.1c-1.1-5.9,0.3-12.4,4-17.2c3.5-4.7,8.7-7.5,14.5-8.2c6.4-0.8,12.8,1.3,17.7,5.4c5.3,4.4,8,10.6,8.4,17.4
	c0.5,7.6-3.5,12.9-8.2,18.2c-1.5-2.6-1.3-6.3-1.4-9.3c-0.2-0.2-0.4-0.5-0.5-0.7c-2.8-3.7-4-10.7-9.4-11.4c-2.2-0.3-4.9,0.4-6.6,1.7
	c-2.2,1.8-2.7,4.6-2.8,7.2c-0.1,2.2,0.1,4.4-0.1,6.6C416.6,988.7,417.4,991.2,418,993.9z"/>
<path class="st9" d="M415.8,986.1c-1.2-1.3-2.5-2.5-3.5-3.9c-1.9-2.4-3-5.6-2.6-8.7c0.5-3.3,2.6-6.1,5.4-7.9c3.2-2.1,7.2-3,10.9-2
	c0.4,0.1,0.8,0.2,1.2,0.4s0.8,0.3,1.2,0.5c0.4,0.2,0.8,0.4,1.1,0.6c0.4,0.2,0.7,0.5,1.1,0.7c0.3,0.3,0.7,0.5,1,0.8s0.6,0.6,0.9,0.9
	c0.3,0.3,0.6,0.7,0.8,1c0.3,0.3,0.5,0.7,0.7,1.1c2.4,4.2,2.4,8.5,1.3,13c-0.2-0.2-0.4-0.5-0.5-0.7c-2.8-3.7-4-10.7-9.4-11.4
	c-2.2-0.3-4.9,0.4-6.6,1.7c-2.2,1.8-2.7,4.6-2.8,7.2C415.7,981.7,416,983.9,415.8,986.1z"/>
<linearGradient id="SVGID_00000040567006221175630940000013749678910556123019_" gradientUnits="userSpaceOnUse" x1="614.6531" y1="1046.4302" x2="620.1541" y2="1005.4536" gradientTransform="matrix(1 0 0 1 0 -54)">
	<stop  offset="0" style="stop-color:#79422F"/>
	<stop  offset="1" style="stop-color:#A1755B"/>
</linearGradient>
<path style="fill:url(#SVGID_00000040567006221175630940000013749678910556123019_);" d="M605.2,992.7c-4.3-1.9-7.3-5.9-9-10.3
	c-2.3-5.9-1.8-12.8,0.8-18.5c0.2-0.3,0.3-0.7,0.5-1s0.3-0.6,0.5-1c0.2-0.3,0.4-0.6,0.6-0.9c0.2-0.3,0.4-0.6,0.6-0.9
	c0.2-0.3,0.4-0.6,0.7-0.9c0.2-0.3,0.5-0.6,0.7-0.8c0.2-0.3,0.5-0.5,0.7-0.8c0.3-0.3,0.5-0.5,0.8-0.8c0.3-0.2,0.5-0.5,0.8-0.7
	s0.6-0.5,0.9-0.7c0.3-0.2,0.6-0.4,0.9-0.6c0.3-0.2,0.6-0.4,0.9-0.6c0.3-0.2,0.6-0.4,1-0.6s0.6-0.3,1-0.5c0.3-0.2,0.7-0.3,1-0.5
	c0.3-0.1,0.7-0.3,1-0.4c0.3-0.1,0.7-0.3,1.1-0.4c0.4-0.1,0.7-0.2,1.1-0.3s0.7-0.2,1.1-0.3s0.7-0.1,1.1-0.2c0.4-0.1,0.7-0.1,1.1-0.2
	c0.4,0,0.7-0.1,1.1-0.1c0.4,0,0.7,0,1.1,0c0.4,0,0.7,0,1.1,0c0.4,0,0.7,0,1.1,0.1c0.4,0,0.7,0.1,1.1,0.1c0.4,0,0.7,0.1,1.1,0.2
	c0.4,0.1,0.7,0.1,1.1,0.2c0.4,0.1,0.7,0.2,1.1,0.3c0.4,0.1,0.7,0.2,1.1,0.3c0.4,0.1,0.7,0.2,1,0.4c0.3,0.1,0.7,0.3,1,0.4
	c0.3,0.2,0.7,0.3,1,0.5s0.6,0.3,0.9,0.5c0.3,0.2,0.6,0.4,0.9,0.6c0.3,0.2,0.6,0.4,0.9,0.6c0.3,0.2,0.6,0.4,0.9,0.7
	c0.3,0.2,0.5,0.5,0.8,0.7s0.5,0.5,0.8,0.7c0.3,0.3,0.5,0.5,0.7,0.8s0.5,0.5,0.7,0.8s0.4,0.6,0.7,0.9c0.2,0.3,0.4,0.6,0.6,0.9
	c0.2,0.3,0.4,0.6,0.6,0.9c0.2,0.3,0.4,0.6,0.5,1c0.2,0.3,0.3,0.6,0.5,1c0.1,0.3,0.3,0.7,0.4,1c0.1,0.3,0.2,0.7,0.4,1
	c1.9,5.7,1.8,12.7-1.1,18.1c-2.7,4.9-6.9,8.4-12,10.6c-1.3-2.8,0.3-6.2,1.2-8.9c-0.3-2.9,0-5.3-1.2-8.1c-1.1-2.5-2.6-5.5-5.4-6.4
	c-1.8-0.6-3.6-0.2-5.2,0.7c-5.1,2.6-6.7,8.7-8.3,13.7C606,987.6,605.8,990,605.2,992.7z"/>
<path class="st9" d="M606,984.9c-1.9-4.8-3.3-9-1.1-14.1c0.2-0.4,0.4-0.8,0.6-1.2c0.2-0.4,0.4-0.7,0.7-1.1c0.2-0.4,0.5-0.7,0.8-1
	s0.6-0.6,0.9-0.9c0.3-0.3,0.6-0.6,1-0.8c0.3-0.3,0.7-0.5,1.1-0.7c0.4-0.2,0.7-0.4,1.1-0.6c0.4-0.2,0.8-0.4,1.2-0.5
	c0.4-0.2,0.9-0.3,1.3-0.4c0.5-0.1,0.9-0.2,1.4-0.3s0.9-0.1,1.4-0.1s0.9,0,1.4,0s0.9,0.1,1.4,0.1c0.5,0.1,0.9,0.2,1.4,0.3
	s0.9,0.3,1.3,0.4c0.4,0.2,0.9,0.4,1.3,0.6c3,1.5,5.5,4.1,6.6,7.3c0.9,2.9,0.6,6.4-0.9,9.1c-0.8,1.4-1.7,2.8-2.6,4.2
	c-0.3-2.9,0-5.3-1.2-8.1c-1.1-2.5-2.6-5.5-5.4-6.4c-1.8-0.6-3.6-0.2-5.2,0.7C609.3,973.8,607.7,979.9,606,984.9z"/>
<path class="st3" d="M388.7,318.6c0.7,0,1.3,0.1,2,0.2c4.1,3.9,6.5,11.2,8.6,16.3c-7.7,10-10,22.2-13.5,34.1
	c-0.2,0.6-0.3,1.2-0.5,1.9c-1.3-2.7-8.1-4-10.9-5c-5.7-3.2-13.3-9.3-16.5-15c-0.8-1.4-0.7-2.7-0.3-4.1c1.9-6.3,13.2-17.2,18.5-21
	C380,323,384.3,320.8,388.7,318.6z"/>
<path class="st3" d="M417.7,310.1c6.8,3.5,13.5,6.9,19.2,12.2c10.1,9.3,15.6,20,21,32.4c1.2,2.6,3.2,6,3.3,8.9
	c-14.9-0.1-26-2.6-38.8-10.5C417.4,343.6,414.9,320.4,417.7,310.1z"/>
<path class="st1" d="M261.9,488.5l0.1,0.9c-4.5,7.2-6.2,13.9-6,22.3c0.3,14.3,6.5,31.3,15,42.7c3,4,6.5,7.5,10.1,11
	c-5.7,0.4-10.7,0.5-16.3-0.5c-8.9-3.2-16.4-5.9-21.4-14.5c-5.9-10.1-6.6-23.6-3.5-34.7C243.2,503.6,251.3,494.6,261.9,488.5z"/>
<path class="st4" d="M543.8,124.7c13.4-1.8,26.6,2.3,38.1,9c-7.9,7.4-15,15.7-22.4,23.7l-9-4.8c-14-7.1-28.8-10.3-44.4-10.7
	C516.3,130.6,529,126.1,543.8,124.7z"/>
<path class="st3" d="M436.1,223.8c3.8,2.3,7.4,5.3,10.9,7.8c12.5,8.9,26,16.8,41.7,17.6c8.8,0.4,18.3-0.8,25-7.1
	c2.3-2.2,4-4.9,6.3-7c0.1-0.1,0.2-0.2,0.3-0.3c-3.8,9.4-6.5,14.4-14.1,21.3c-9.2,7.1-17.8,10.4-29.2,12c-17.6,2.4-40,0.3-54.7-10.7
	C425,246,429.7,233.4,436.1,223.8z"/>
<path class="st2" d="M704.4,439.5l0.1-0.6c1.3-6,1.1-12.3,0.8-18.5c-0.8-18-4.2-34-14.2-49.2c-2.3-3.5-4.8-6.9-7.5-10
	c-2.7-3.2-5.6-6.2-8.7-9c-2-1.8-10.6-7.6-11-9.5c6.8-0.7,27.7,8,34.5,11.7c4.4,2.4,9.1,5.7,13,8.9c21.8,17.5,27.1,37.8,33.2,63.5
	c1.3,5.5,2.9,10.8,4.3,16.2c-4.8,4.9-12.2,7-18.9,7.1C720.9,450.2,710.7,445.7,704.4,439.5z"/>
<path class="st5" d="M254.3,576.4c4,4.2,8.5,7.9,13,11.6c14.9,9.8,29.6,15.1,47.3,17.5c3.4,0.1,6.8,0.2,10.2-0.1
	c0.6,5.8,2.3,11.4,3,17.2l1.1,3.3c1.3,12,4,24.7,6.8,36.5c-4.9,1-10.2,0.7-15-0.2c-22.5-4.4-44.2-24.2-56.5-42.7
	C255.5,606.4,251.1,592,254.3,576.4z"/>
<path class="st6" d="M267.2,588c14.9,9.8,29.6,15.1,47.3,17.5c3.4,0.1,6.8,0.2,10.2-0.1c0.6,5.8,2.3,11.4,3,17.2
	c-1.1,0.4-0.9,0.6-2.2,0.1c-16.4,1-28.3,0.4-42.5-9C273.6,607.5,269.5,598.9,267.2,588z"/>
<path class="st6" d="M314.5,605.5c3.4,0.1,6.8,0.2,10.2-0.1c0.6,5.8,2.3,11.4,3,17.2c-1.1,0.4-0.9,0.6-2.2,0.1l0.9-0.6
	c-0.1-0.1-0.3-0.2-0.5-0.3c-1.5-0.6-2.1-0.7-3.2-1.9C319.6,616.7,314.7,610.1,314.5,605.5z"/>
<path class="st11" d="M430.4,926.7c1.1-0.2,1.8-0.3,2.9,0c4.5,1.2,8.5,3.5,12.9,5c10.5,3.5,21.1,6.5,31.9,9
	c15,3.5,31.1,5.8,46.6,5.1c22.5-1,44-6.6,65.4-13.5c3.2-1,14.1-5.6,16.9-4.2c-14.2,11-29.3,21-44,31.4
	c-14.6,10.3-28.8,20.9-43.1,31.6C490.8,968.6,460.3,948.1,430.4,926.7z"/>
<path class="st5" d="M339.2,461.7c25.1-16.5,41-37.6,47.1-67.3c1.4-7,2.7-14.2,3.9-21.2c1.9-11.2,2-24.9,12.8-31.8
	c1.5-1,3.2-1.8,5.1-1.6c2.5,2.4,3.4,17.6,4.5,22.1c5.8,23.8,16.5,52.3,38.7,65.1c4.7,2.7,10,4.9,15.4,5.1c0.3,0,0.5,0,0.8,0h0.5
	c16.5,19.9,26.3,29.7,50.9,39.2c-10.3-6.5-16.2-15.2-20.8-26.4c13.8,19.6,32.7,33.3,55.7,40.4c-2.1,1.5-3.7,3-5.5,4.8
	c-3.5-2.1-8-3.4-11.8-4.9c-9.2-3.7-18.7-7.2-27.7-11.4c-7-3.2-13.6-6.5-19.9-11c-5.3-3.8-10.3-8.4-15.9-11.8
	c-7.1-4.2-15.1-7.1-22.3-11.3c-28.2-16.3-39.6-35.7-50.5-65.2c-12.7,24.8-10.8,63.5-31,83.2c2.7-0.2,5.2-0.2,7.9-0.1
	c-17.4,1.5-17.6,2.5-30.9,13.4c-2,0.5-3.9,0.9-5.9,1.2c-1.6-0.1-2.7,0.2-3.8-1C335.9,468.1,338.1,464.5,339.2,461.7z"/>
<path class="st1" d="M550.7,347.7l-1.6-1.5l0.1-1.1c2.8-1.8,13.3-4.1,17.3-5.6c6.2-2.3,12.2-5.1,18.2-7.9c9.3,0.8,30.2,13.4,39.5,18
	c9.9,4.9,19.9,9,29.1,15.2c7.7,5.1,13.8,11.3,20.7,17.4c-4.3,4.9-8.9,8.9-14.8,11.8c-10.9,5.3-21.5,4.8-32.9,1.5
	c-3-0.9-6.4-1.8-8.9-3.9c-3.1-2.7-5.2-6.7-7.6-10c-2.1-2.9-4.4-5.6-6.9-8.1c-2.5-2.6-5.1-4.9-7.9-7.1c-13-10.1-26.9-15-42.2-20.4
	c0.1,0.2,0.3,0.4,0.4,0.5c2.5,3.2,12.1,8.4,16.1,11.6c20.3,16.4,33.3,32,40.9,57.3c1.5,5.1,3.5,11.2,3.6,16.5l-1.1,0.4l-0.5,1.1
	c-0.3-0.5-0.2-0.3-0.3-0.9c-0.2-1.3-0.4-2.5-0.6-3.7c-2.3-11.2-4.9-19.2-10.2-29.4c-1.8-3.3-3.4-6.9-5.5-10
	c-7.2-10.4-18.2-18.5-27.7-26.6C562.2,357.9,556.8,351.7,550.7,347.7z"/>
<path class="st7" d="M400.1,374.4c10.9,29.6,22.3,48.9,50.5,65.2c7.2,4.2,15.2,7,22.3,11.3c5.6,3.4,10.6,8,15.9,11.8
	c6.3,4.5,12.9,7.8,19.9,11c9,4.2,18.5,7.7,27.7,11.4c3.8,1.5,8.3,2.8,11.8,4.9c-3.4,3.4-6.6,6.5-10.8,8.9c-9,0.2-18.1-0.3-27.2-0.2
	c-2.6,0-6.4,0.3-8.7-0.8c-3.2-1.5-6.4-5.5-9.1-7.9c-3.1-2.8-6.8-4.8-9.8-7.7c-2.3-4.4-4.6-9.4-8.1-12.9
	c-11.6-11.5-79.2-11.7-97.4-11.7c-2.7-0.1-5.2-0.1-7.9,0.1C389.4,437.9,387.4,399.2,400.1,374.4z"/>
<path class="st3" d="M581.8,262.5c8.1,2,16.9,2.4,25.3,3.3c5.1,0.6,10.3,1.5,15.4,1.8c2.8,0.2,7.1-1.1,9.6-0.2
	c6.9,2.5,10.2,11.6,13,17.8c-7.6-0.9-14.9-3.6-22.5-4.1c0.8,1.8,0.8,2.9,0.1,4.8s-2.1,4-3.3,5.6c0.1,0,0.1,0.1,0.2,0.1
	c8.9,5.5,22.3,10.7,32.8,10.3c7.5-0.3,12.1-4.3,16.9-9.5c-1,4-1.8,8-3,11.9c-3.5,10.8-11.4,18.9-21.4,23.9
	c-17.6,8.8-33.7,7.2-51.9,1.2c3.9-2.7,12-10.7,13-15.3c-2.2,0.4-4.2,2.1-6.3,3c-20.4,8.5-67.9-18.2-88.1-27.1
	c-8.6-3.8-17.8-6.3-26.4-10.1c7.6,0,15.3,1.6,22.9,2.4C545,286.2,551.5,281.7,581.8,262.5z"/>
<path class="st1" d="M595.4,278.8c9.1,0.6,18.1,1.8,27.1,2.3c0.8,1.8,0.8,2.9,0.1,4.8s-2.1,4-3.3,5.6
	C611.5,286.6,603.5,283,595.4,278.8z"/>
<linearGradient id="SVGID_00000173147084787207509600000012927166697879305354_" gradientUnits="userSpaceOnUse" x1="783.5194" y1="662.3896" x2="565.4038" y2="639.1398" gradientTransform="matrix(1 0 0 1 0 -54)">
	<stop  offset="0" style="stop-color:#CE6646"/>
	<stop  offset="1" style="stop-color:#E8805D"/>
</linearGradient>
<path style="fill:url(#SVGID_00000173147084787207509600000012927166697879305354_);" d="M726.1,539.8c0.3,0.5,0.6,0.9,0.9,1.4
	c0.3,0.5,0.5,1,0.8,1.4c0.2,0.5,0.5,1,0.7,1.5s0.4,1,0.6,1.5c0.2,0.5,0.4,1,0.6,1.5c0.2,0.5,0.3,1,0.5,1.6c0.1,0.5,0.3,1.1,0.4,1.6
	c0.1,0.5,0.2,1.1,0.3,1.6s0.2,1.1,0.2,1.6c0.1,0.5,0.1,1.1,0.2,1.6c0,0.5,0.1,1.1,0.1,1.6s0,1.1,0,1.6s0,1.1-0.1,1.6
	c0,0.5-0.1,1.1-0.2,1.6c-0.1,0.5-0.2,1.1-0.3,1.6s-0.2,1.1-0.3,1.6c-2.4,10.4-7.5,21.9-13.9,30.5c-1.9,2.5-4.6,4.7-6.3,7.3
	c-0.6,1-0.8,1.1-0.5,2.2c1.4,0.8,3,0.4,4.5,0.3c3.3-1.8,7-3.1,10.4-4.6c17.3-7.6,35.4-13,50-25.4c2.9-2.9,5.6-5.7,7.8-9.1
	c5.6,13.3,5.4,28,0,41.3c-9,22-30.2,42.3-52,51.3c-8.3,3.4-16.4,4.7-25.4,4c2-12.2,6.1-26.2,6.1-38.4c-1.8-2-3.9-3.6-5.9-5.3
	c-8.5,9.9-20.5,13.4-33,15.6c-24.6,4.4-72.5,4.6-93.3-10.2c-7.7-5.5-15.8-16.1-17.4-25.5c0.9,1.1,1.8,2.2,2.8,3.2
	c15.2,16.4,33.3,18.8,54.6,19.4c19.2,0.6,48.6,1.9,66.3-5.4c5.8-2.4,10.9-6.1,15.4-10.4c2.1-2,4.1-4.1,5.9-6.4
	c1.8-2.3,3.4-4.7,4.9-7.2C719,578.8,725.6,555.4,726.1,539.8z"/>
<path class="st6" d="M774.6,575.3c-0.1,12.7-3,24.1-12.3,33.3c-9.6,9.5-23.4,14.3-36.8,14.1c-4-0.1-8-0.5-12-0.9
	c0.1-2.8,2.2-14.4,0.9-16.3c-0.1-0.1-0.2-0.2-0.3-0.2c3.3-1.8,7-3.1,10.4-4.6C741.9,593.2,760,587.7,774.6,575.3z"/>
<path class="st6" d="M411.9,768.2c24.3,17.2,56.9,41.8,85.7,49.3c12.3,3.2,26.9,3.6,39.4,1.5c30-5.2,67.6-31.7,91.8-50.1
	c0.8,6.8,1.1,25.6-0.2,32.4c-0.1,27.4-1.4,54.3,8.5,80.5c8.7,1.4,17.6,2.7,26.1,5.1c-13.2,11.2-27.7,21.1-41.7,31.3
	c-4,2.9-10.1,8.3-14.5,10.1c-2.7-1.5-13.7,3.1-16.9,4.2c-21.4,6.9-42.8,12.5-65.4,13.5c-15.5,0.7-31.6-1.6-46.6-5.1
	c-10.8-2.5-21.5-5.5-31.9-9c-4.4-1.5-8.3-3.8-12.9-5c-1.1-0.3-1.8-0.2-2.9,0c-3.9-1.6-8.6-5.9-12.1-8.3
	c-14.6-10.2-28.9-20.7-43-31.7c9-2.4,18.5-3.2,27.7-5c10.9-25.1,9.4-53.9,9-80.6C411.4,791.6,410.6,777.4,411.9,768.2z"/>
<path class="st2" d="M411.9,768.2c24.3,17.2,56.9,41.8,85.7,49.3c12.3,3.2,26.9,3.6,39.4,1.5c30-5.2,67.6-31.7,91.8-50.1
	c0.8,6.8,1.1,25.6-0.2,32.4c-22.2,16.4-54.9,44.7-80.2,54.1c-6.5,2.4-13.4,3.6-20.3,4.1c-11.3,0.7-23.6,0-34.4-3.7
	c-20.1-6.8-64.9-40-81.7-54.7C411.4,791.6,410.6,777.4,411.9,768.2z"/>
<path class="st9" d="M377,457.6c18.2,0,85.9,0.2,97.4,11.7c3.6,3.6,5.8,8.5,8.1,12.9c3,2.9,6.6,5,9.8,7.7c2.7,2.4,5.9,6.4,9.1,7.9
	c2.3,1.1,6.1,0.9,8.7,0.8c9.1-0.1,18.2,0.4,27.2,0.2c4.2-2.4,7.5-5.5,10.8-8.9c1.8-1.8,3.4-3.3,5.5-4.8c14.5-6.4,25.9-9.5,41.4-12.2
	c4.2-0.7,8.6-1.8,12.9-1.9c1.3,0.9,3.9,0.3,5.3,0.1c7.1-0.7,14-1.7,21.2-2c8-0.3,16.1,0.3,24.2-0.3c7.8-0.2,15.7,0.2,23.4,0.8
	c8.7,0.8,53.4,5.8,57.4,10.4c3.5,3.9,1.1,25.5,0,31c-8.9,8.2-13.2,9.7-13.7,23.6c-0.1,1.7,0,3.4,0,5.1c-0.5,15.6-7.1,39-14.9,52.5
	c-1.4,2.5-3.1,4.9-4.9,7.2c-1.8,2.3-3.8,4.4-5.9,6.4c-4.5,4.3-9.6,8-15.4,10.4c-17.8,7.3-47.1,5.9-66.3,5.4
	c-21.4-0.6-39.4-3.1-54.6-19.4c-1-1.1-1.9-2.1-2.8-3.2c-13.5-21.3-19.2-43.6-24.4-67.8l-1.4-0.8c-2.8-1.5-5.4-2.8-8.6-3.5
	c-8.9-2.2-16,0-23.6,4.5c-3.8,17.9-7.8,35.3-15.5,52.1c-2.4,5.2-6.3,9.8-8.5,15c-3.7,3.9-7.3,7.9-11.6,11.2
	c-14.1,10.8-33,11.6-50,12c-19.2,0.5-49.4,1.8-66.5-7.2c-4.2-2.2-7.5-5.3-10.9-8.5c-1.6-1.5-3.7-4.1-5.7-5l-0.5-0.5
	c-0.3-0.9-0.5-1.5-1.1-2.3c-6.8-10.1-11.1-20.5-14.4-32.2c0-0.1,0-0.1,0-0.2c-1-6.1-2.1-12.2-3-18.4c-1-7-1.1-19.3-4.5-25.5
	c-2.4-4.3-7.4-7.9-11.2-11l-0.1-0.8c-0.9-5.5-3.2-25.7,0.3-30c3.8-4.6,32.8-6.9,39.3-8l1-0.2c2-0.3,3.9-0.8,5.9-1.2
	C359.5,460,359.6,459,377,457.6z"/>
<path class="st3" d="M721,494c2.7,0,6.4-0.6,8.7,0.7c1,1.6,0.8,2.5,0.8,4.4c-2.7,0-6.5,0.7-8.9-0.6C720.7,496.9,721,495.8,721,494z"
	/>
<path class="st3" d="M310.1,494.2c1.6-0.1,3.1-0.2,4.7-0.1c1.9,0.1,3.3,0.2,4.6,1.7c0.2,1.4-0.2,2.1-1,3.3c-2.3,0.1-7.6,0.9-9.4-0.6
	c-0.2-1-0.3-1.7-0.1-2.7C309.2,494.6,309.2,494.9,310.1,494.2z"/>
<path class="st3" d="M623.8,488.5c17.9-2.3,56.7-4.8,72.2,3.7c-5.5,0.5-11.8-0.6-17.4-0.9c-13.8-0.7-27.6-1.6-41.4-1.8
	C632.8,489,628.3,488.6,623.8,488.5z"/>
<path class="st5" d="M503.3,531.4c1-4.6,2.4-7.9,6.6-10.5c4.6-2.8,11.1-3.2,16.1-1.8c4,1.1,7.5,3.7,9.4,7.5c0.7,1.4,1.1,3,1.5,4.6
	l-1.4-0.8c-2.8-1.5-5.4-2.8-8.6-3.5C518.1,524.7,511,526.9,503.3,531.4z"/>
<path class="st3" d="M343.7,492.5c10.4-6.5,43.1-6.8,55.5-5.6c4.7,0,9.7,0,14.3,1.1c-4.5,2.2-28.8,2.8-35.2,2.9
	C366.8,491.3,355.2,492.3,343.7,492.5z"/>
<path class="st5" d="M637.2,489.5c13.8,0.2,27.6,1,41.4,1.8c5.6,0.3,11.9,1.4,17.4,0.9c6.5,3.7,10.2,8.9,12.2,16.1
	c4.1,15.1,2,38.6-2.3,53.3c-0.4-0.9-0.6-1.8-0.9-2.7c-1-4-2.5-7.8-4.5-11.4c-3.7-6.9-8.2-11.6-15.9-13.9c4.3-5.9,4.9-8.1,10.8-13.3
	c-11.8-11.6-26.3-22.7-42.7-26.6c-6.4-1.5-13-2.1-19.6-2.8l-0.3-0.3c-0.8-0.1-1.4-0.3-2.2-0.2c-0.2,0-0.3,0-0.5,0.1l0.1-0.3
	c1.1-0.7,1.3-0.6,2.7-0.4c1.5,0.2,2.2,0.1,3.7-0.3C636.9,489.6,637.1,489.6,637.2,489.5z"/>
<path class="st2" d="M377,457.6c18.2,0,85.9,0.2,97.4,11.7c3.6,3.6,5.8,8.5,8.1,12.9c-7.6-1.2-15.2-4.1-22.7-6.1
	c-5.8-1.6-11.7-2.9-17.7-3.9s-12-1.7-18-2.2c-17.2-1.2-34.5-1.1-51.7-0.6c-6.5,0.2-20.7,2.8-26.4,1.5C359.5,460,359.6,459,377,457.6
	z"/>
<path class="st5" d="M413.6,488c18.4,1.3,52.6,1.9,65,16.8c7,8.3,6.8,20.6,5.9,30.9c-0.1,0.7,0,0.5-0.3,1.2c0-1.4,0.1-2.4-0.8-3.5
	c-3.7-4.3-13.8-4.5-19.2-5.1c0.3,3,0.3,5.6-0.6,8.5l-0.8-2.1c-1.6-4.8-4.9-8.4-8.1-12.1l-2.2-2.6c-0.5-3.3-1.6-6.4-2.8-9.6
	c2.4,0.9,5,2,7.1,3.6c4,0,8.2-0.5,12.2-1.4c-6.7-10.6-17-16.8-29.1-19.5c-25-5.5-52.8-1.7-74.4,12.2c-6.8,4.4-12.8,9.7-18.5,15.4
	c4.6,4.4,7.7,8.8,11,14.2c-6.4-0.3-11.7,2.2-16.4,6.4c-4,3.6-6.6,8.1-9.1,12.8c-3.2-11.5-3.6-37.5,0.2-48.4
	c2.1-5.9,5.4-10.5,11.1-13.2c11.5-0.2,23.1-1.2,34.6-1.6C384.7,490.9,409,490.2,413.6,488z"/>
<path class="st11" d="M449.7,510.3c2.4,0.9,5,2,7.1,3.6c0.2,2,0.4,4,1.1,5.9c2.6,4.7,5.8,9.2,4.8,14.9c-1.6-4.8-4.9-8.4-8.1-12.1
	l-2.2-2.6C452,516.6,450.9,513.5,449.7,510.3z"/>
<path class="st2" d="M346.9,520.7c5.7-5.7,11.7-11,18.5-15.4c21.6-14,49.4-17.7,74.4-12.2c12.2,2.7,22.4,8.9,29.1,19.5
	c-3.9,0.9-8.1,1.4-12.2,1.4c-2-1.6-4.7-2.6-7.1-3.6c1.2,3.1,2.3,6.2,2.8,9.6l2.2,2.6c3.2,3.7,6.5,7.4,8.1,12.1l0.8,2.1
	c-0.2,1-0.4,2-0.5,3c-0.9,5.4-6.9,10-11.1,12.9c-15.3,10.7-35.2,14-53.4,10.6c-0.9-0.2-1.7-0.3-2.6-0.5c-0.8-0.2-1.7-0.4-2.5-0.7
	c-0.8-0.2-1.7-0.5-2.5-0.8s-1.6-0.6-2.4-0.9c-0.8-0.3-1.6-0.7-2.4-1.1c-0.8-0.4-1.6-0.8-2.3-1.2c-0.8-0.4-1.5-0.8-2.3-1.3
	c-0.7-0.5-1.5-0.9-2.2-1.4s-1.4-1-2.1-1.5s-1.4-1.1-2-1.6c-0.7-0.6-1.3-1.1-2-1.7c-0.6-0.6-1.3-1.2-1.9-1.8s-1.2-1.3-1.8-1.9
	c-0.6-0.7-1.1-1.3-1.7-2c-0.5-0.7-1.1-1.4-1.6-2.1c-0.5-0.7-1-1.4-1.4-2.2c-0.1-0.2-0.2-0.3-0.3-0.5c-2.5-0.9-4.7-3.4-6.6-5.3
	C354.6,529.5,351.5,525,346.9,520.7z"/>
<path class="st11" d="M364.4,539.4c-0.4-1.2-0.8-2.4-1.1-3.6c-1-4.2-0.6-8,1.7-11.7c6.2-9.7,20.5-14.5,31.1-17
	c-2.5,7-3.7,13.2-4,20.7C382.7,529.2,371.4,532.8,364.4,539.4z"/>
<path class="st1" d="M435.8,524.1c3.4,0.5,9.1,0.6,11.9,2.6c1.9,3.3-3,9.9,1.3,11.8c-0.2,0.4-0.3,0.8-0.5,1.1
	c-3.7,7.4-10.2,12.7-18,15.2c-7.3,2.3-14.9,1.9-21.7-1.7c-7.9-4.2-12.8-11.4-15.4-19.9c0.7-1.9-0.4-3,0.2-5l0.7,0.1l0.7,1l0.1-2.1
	c4.1-1.6,9.4-1.9,13.8-2.7c2.5,4.5,5.3,8.5,10.5,9.9c1.8,0.5,3.6,0.6,5.5,0.7C430.4,532.7,433,529.4,435.8,524.1z"/>
<path class="st4" d="M452.5,519.9l2.2,2.6c3.2,3.7,6.5,7.4,8.1,12.1l0.8,2.1c-0.2,1-0.4,2-0.5,3c-0.9,5.4-6.9,10-11.1,12.9
	c-15.3,10.7-35.2,14-53.4,10.6c-0.9-0.2-1.7-0.3-2.6-0.5c-0.8-0.2-1.7-0.4-2.5-0.7c-0.8-0.2-1.7-0.5-2.5-0.8s-1.6-0.6-2.4-0.9
	c-0.8-0.3-1.6-0.7-2.4-1.1c-0.8-0.4-1.6-0.8-2.3-1.2c-0.8-0.4-1.5-0.8-2.3-1.3c-0.7-0.5-1.5-0.9-2.2-1.4s-1.4-1-2.1-1.5
	s-1.4-1.1-2-1.6c-0.7-0.6-1.3-1.1-2-1.7c-0.6-0.6-1.3-1.2-1.9-1.8s-1.2-1.3-1.8-1.9c-0.6-0.7-1.1-1.3-1.7-2
	c-0.5-0.7-1.1-1.4-1.6-2.1c-0.5-0.7-1-1.4-1.4-2.2c-0.1-0.2-0.2-0.3-0.3-0.5l-0.2-0.8c7.1-6.6,18.3-10.2,27.7-11.6
	c0.4,1.9,0.6,3.8,1.2,5.5c2.6,8.5,7.5,15.7,15.4,19.9c6.8,3.6,14.4,4,21.7,1.7c7.8-2.5,14.3-7.8,18-15.2c0.2-0.4,0.4-0.7,0.5-1.1
	C451.6,532.9,451.9,526.1,452.5,519.9z"/>
<path class="st7" d="M464.1,528.3c5.4,0.6,15.5,0.8,19.2,5.1c0.9,1.1,0.8,2.1,0.8,3.5c-1.1,19.4-8.4,44.7-23.5,58
	c-15,13.1-37.6,12.3-56.4,12.2c-7.5,0-14.9,0.1-22.4-0.4c-13.3-1-25.4-4.3-34.4-14.7c-8.1-9.3-14.3-25.5-15-37.8
	c2.5-4.7,5.1-9.1,9.1-12.8c4.7-4.3,10-6.7,16.4-6.4c1.9,1.8,4.1,4.3,6.6,5.3c0.1,0.2,0.2,0.3,0.3,0.5c0.5,0.7,0.9,1.5,1.4,2.2
	s1,1.4,1.6,2.1c0.5,0.7,1.1,1.4,1.7,2c0.6,0.7,1.2,1.3,1.8,1.9c0.6,0.6,1.2,1.2,1.9,1.8c0.6,0.6,1.3,1.2,2,1.7
	c0.7,0.6,1.3,1.1,2,1.6s1.4,1,2.1,1.5s1.5,1,2.2,1.4c0.7,0.5,1.5,0.9,2.3,1.3c0.8,0.4,1.5,0.8,2.3,1.2s1.6,0.7,2.4,1.1
	c0.8,0.3,1.6,0.6,2.4,0.9c0.8,0.3,1.7,0.6,2.5,0.8s1.7,0.5,2.5,0.7s1.7,0.4,2.6,0.5c18.2,3.3,38.1,0,53.4-10.6
	c4.2-2.9,10.2-7.6,11.1-12.9c0.2-1,0.4-2,0.5-3C464.4,533.9,464.4,531.3,464.1,528.3z"/>
<path class="st7" d="M555.5,532.1c1.4-0.6,2.9-1.2,4.3-1.6c4.2-1.2,15.6-3.8,19.5-1.6l0.5,2c-0.1,3.3,0.2,6.6,0.4,9.9
	c1,2.3,2.3,4.2,4,6c10.2,11.5,25.2,16.8,40.3,17.7c16,0.9,31.5-2.3,43.6-13.3c2.8-2.5,8.3-7.6,8.5-11.4l0.7,1.1l0.5-0.6
	c2.5-2,4.7-4.4,7-6.6c7.7,2.3,12.2,7,15.9,13.9c2,3.6,3.5,7.4,4.5,11.4c0.2,0.9,0.5,1.8,0.9,2.7c-1.4,10.1-6.3,22-12.8,29.9
	c-8.1,9.9-19.4,13.6-31.8,14.7c-9.4,0.9-18.7,0.8-28.2,0.8c-18,0-38.4,0.9-52.9-11.5C563.1,580.9,557.2,553.5,555.5,532.1z"/>
<linearGradient id="SVGID_00000137131438779450580870000014273985152908818095_" gradientUnits="userSpaceOnUse" x1="627.4917" y1="545.3485" x2="623.0817" y2="609.7112" gradientTransform="matrix(1 0 0 1 0 -54)">
	<stop  offset="0" style="stop-color:#0E0000"/>
	<stop  offset="1" style="stop-color:#632916"/>
</linearGradient>
<path style="fill:url(#SVGID_00000137131438779450580870000014273985152908818095_);" d="M598.4,491.1c8.4-0.3,16.9-2.2,25.4-2.6
	c4.5,0.2,8.9,0.5,13.4,1.1c-0.2,0-0.3,0.1-0.5,0.1c-1.4,0.4-2.2,0.5-3.7,0.3c-1.3-0.2-1.6-0.3-2.7,0.4l-0.1,0.3
	c0.2,0,0.3-0.1,0.5-0.1c0.8-0.1,1.4,0.1,2.2,0.2l0.3,0.3c6.5,0.7,13.2,1.3,19.6,2.8c16.4,3.9,30.9,14.9,42.7,26.6
	c-5.9,5.3-6.5,7.5-10.8,13.3c-2.3,2.3-4.5,4.6-7,6.6l-0.5,0.6l-0.7-1.1c-0.2,3.8-5.7,8.9-8.5,11.4c-12.1,11-27.6,14.2-43.6,13.3
	c-15.1-0.9-30.1-6.2-40.3-17.7c-1.7-1.9-3-3.8-4-6c-0.2-3.3-0.5-6.6-0.4-9.9l-0.5-2c-3.9-2.2-15.3,0.4-19.5,1.6
	c-1.5,0.4-2.9,1-4.3,1.6c-0.2-2.1-0.3-4.1-0.2-6.2c0.1-8.7,2.2-17.6,8.7-23.9C571.6,494.7,588.2,490.7,598.4,491.1z"/>
<path class="st6" d="M598.4,491.1c8.4-0.3,16.9-2.2,25.4-2.6c4.5,0.2,8.9,0.5,13.4,1.1c-0.2,0-0.3,0.1-0.5,0.1
	c-1.4,0.4-2.2,0.5-3.7,0.3c-1.3-0.2-1.6-0.3-2.7,0.4l-0.1,0.3c0.2,0,0.3-0.1,0.5-0.1c0.8-0.1,1.4,0.1,2.2,0.2l0.3,0.3
	c-6.5,0.3-13,0-19.5,0.6c-4.6,0.4-8.9,1.5-13.4,2.1C599.9,492.1,599.8,492,598.4,491.1z"/>
<path class="st14" d="M579.8,530.9c1.8-5.1,7.7-11.5,11.3-15.5c-0.3,7.6-0.2,15.5,2.7,22.7c-4.6,0.9-9.1,1.9-13.7,2.7
	C580,537.4,579.7,534.2,579.8,530.9z"/>
<path class="st11" d="M645.9,506.5c10.8,2.5,25.9,8,32.1,18c2.3,3.7,1.9,7.2,0.9,11.2c-0.4,1.5-1.1,3.2-1.2,4.7l-0.5,0.6l-0.7-1.1
	c-3.4-3.4-7.4-5.6-11.8-7.5c-2.3-1-12-5.2-14.1-4.4C650.9,520.1,649.2,513.5,645.9,506.5z"/>
<path class="st5" d="M555.5,532.1c-0.2-2.1-0.3-4.1-0.2-6.2c0.1-8.7,2.2-17.6,8.7-23.9c7.7-7.3,24.2-11.3,34.5-10.9
	c1.4,0.9,1.5,1,2,2.5c-10.6,3-20.2,8.8-26.7,18c2.3,1.1,4.4,2,6.8,2.8c3.9-1.2,7.7-2.5,11.5-3.9c-0.3,1.5-0.4,3.5-1,4.9
	c-3.6,4-9.5,10.4-11.3,15.5l-0.5-2c-3.9-2.2-15.3,0.4-19.5,1.6C558.3,530.9,556.9,531.5,555.5,532.1z"/>
<path class="st4" d="M650.7,527.9c2.1-0.8,11.8,3.4,14.1,4.4c4.4,1.9,8.3,4.1,11.8,7.5c-0.2,3.8-5.7,8.9-8.5,11.4
	c-12.1,11-27.6,14.2-43.6,13.3c-15.1-0.9-30.1-6.2-40.3-17.7c-1.7-1.9-3-3.8-4-6c4.6-0.9,9.1-1.8,13.7-2.7c1,2,2.1,3.9,3.4,5.7
	c4.6,6.5,11.2,11.1,19.2,12.4c7.6,1.2,15.6-1,21.8-5.6C645.9,544.8,649.3,537.1,650.7,527.9z"/>
<path class="st7" d="M503.3,531.4c7.6-4.5,14.8-6.7,23.6-4.5c3.1,0.8,5.7,2,8.6,3.5l1.4,0.8c5.3,24.2,10.9,46.5,24.4,67.8
	c1.6,9.4,9.7,20.1,17.4,25.5c20.8,14.7,68.7,14.6,93.3,10.2c12.5-2.2,24.5-5.8,33-15.6c2,1.7,4.2,3.4,5.9,5.3
	c0.1,12.2-4,26.2-6.1,38.4c-4.2,16.1-8.2,32.7-17.7,46.7c-8,17.7-43,46.8-58.5,59.5c-24,18.3-61.6,44.9-91.6,50
	c-12.5,2.1-27.1,1.7-39.4-1.5c-28.8-7.5-61.4-32-85.7-49.3c-24.5-18.4-51.8-41.4-64.5-69.8c-5.3-11.7-8.8-23.5-11.6-36
	c-2.8-11.8-5.5-24.4-6.8-36.5l-1.1-3.3c-0.8-5.8-2.5-11.4-3-17.2c3.6-0.9,6.7-2.3,9.8-4.4c2,0.9,4.1,3.5,5.7,5
	c3.4,3.2,6.7,6.3,10.9,8.5c17.1,8.9,47.4,7.7,66.5,7.2c17.1-0.5,35.9-1.3,50-12c4.3-3.3,7.9-7.3,11.6-11.2c2.3-5.1,6.2-9.8,8.5-15
	C495.5,566.8,499.6,549.4,503.3,531.4z"/>
<path class="st5" d="M554.3,709.2c-6.1,1-11.9,2.8-18,3.6c-12.3,1.7-37.3,2.1-48.4-2.6c-6-1-27.6-2.8-30.8-6.7c0.3-1.2,0-0.8,1-1.4
	c4.6-2.4,24.9,1.7,31.6,2.1c9.7,0.6,19.5-0.4,29.2-0.4c11.6-0.1,23.2,0.6,34.8-0.3c5.5-0.5,24-5.1,27.8-3.4c1.3,0.6,1.3,0.9,1.7,2.1
	c-0.9,1.6-3.2,2.1-4.9,2.5C570.5,706.9,562.1,706.9,554.3,709.2z"/>
<path class="st11" d="M554.3,709.2c-6.1,1-11.9,2.8-18,3.6c-12.3,1.7-37.3,2.1-48.4-2.6c-0.2-0.1-0.4-0.3-0.6-0.4
	c-0.7-0.4-1-0.5-1.7-0.6l-0.2-0.4c5.2-0.7,11.6,0.8,17,0.8c11.2,0,22.5-0.2,33.7-0.5c5.2-0.1,12.7-1.8,17.5-0.2
	C553.9,709.1,554.1,709.1,554.3,709.2z"/>
<path class="st5" d="M485.2,630.5c1.6-1,3-1.7,4.8-2.1c9.8-2.1,49.3-2.6,59-0.4c2.5,0.6,4.3,1.2,6.3,2.8c-0.2,1.2-0.5,2.4-1,3.6
	c-0.4,1.2-0.9,2.3-1.5,3.4c-4.3,7.8-12.6,12.9-21.1,15.1c-10.8,2.8-22.9,1.6-32.6-4.2C491.9,644.4,487.2,638.8,485.2,630.5z"/>
<path class="st5" d="M347.3,698.4c0.5,0.1,1,0.1,1.4,0.3c1.8,1.3,4.1,5.9,5.4,7.9c3.7,5.4,7.7,10.5,12.1,15.2
	c24.8,26.3,107.1,89.6,142.3,94.4c24.9,3.3,43.3-3.6,64.1-16.4c31-19,59.4-41,87-64.6c7.2-6.2,13.5-13.8,20.9-19.7
	c2-1.6,4.8-7.2,6.8-7.7v1.7c-8,17.7-43,46.8-58.5,59.5c-24.2,18.3-61.8,44.9-91.8,50c-12.5,2.1-27.1,1.7-39.4-1.5
	c-28.8-7.5-61.4-32-85.7-49.3C387.4,749.9,360.1,726.9,347.3,698.4z"/>
<linearGradient id="SVGID_00000063610962373044582790000003137150059298155677_" gradientUnits="userSpaceOnUse" x1="520.2231" y1="684.1215" x2="517.4481" y2="639.9405" gradientTransform="matrix(1 0 0 1 0 -54)">
	<stop  offset="0" style="stop-color:#F48853"/>
	<stop  offset="1" style="stop-color:#FEA76B"/>
</linearGradient>
<path style="fill:url(#SVGID_00000063610962373044582790000003137150059298155677_);" d="M485.2,630.5c-0.4-11,11.2-29.7,18.7-37.6
	c3.8-4,9.8-7.6,15.4-7.8c6.6-0.2,12.7,4.1,17.1,8.6c7.7,7.6,19,25,18.8,36.2c0,0.3,0,0.6,0,0.9c-2-1.7-3.8-2.2-6.3-2.8
	c-9.7-2.2-49.1-1.7-59,0.4C488.2,628.8,486.7,629.5,485.2,630.5z"/>
<path class="st5" d="M334.5,601c2,0.9,4.1,3.5,5.7,5c3.4,3.2,6.7,6.3,10.9,8.5c17.1,8.9,47.4,7.7,66.5,7.2c17.1-0.5,35.9-1.3,50-12
	c4.3-3.3,7.9-7.3,11.6-11.2c-2.8,10.4-11.5,23-20.9,28.5c-21.7,12.7-74.8,12.5-98.7,6c-9-2.5-17.9-6.6-23.6-14.2
	c-2.4,2.4-4.9,4.8-7.2,7.3l-1.1-3.3c-0.8-5.8-2.5-11.4-3-17.2C328.4,604.5,331.4,603.2,334.5,601z"/>
<path class="st4" d="M0,1024h84.4c-0.1,0.1-0.2,0.2-0.2,0.3H0V1024z"/>
<path class="st4" d="M1024,512c0,169.1-82,319.1-208.4,412.3c-1-0.8-1.9-1.7-2.8-2.5c5.1-3.6,9.6-7.9,12.5-13.5
	c8.3-15.8-4.3-36.8-13-49.7c-4.5-6.6-9.9-13-13.5-20.2c-3.8-7.7-4-17-6.5-25.2c-1.2-4-3.1-7.9-6.1-10.8
	c-8.3-7.9-43.6-18.3-55.4-21.6c-8.3-2.3-17.5-3.9-25.1-8c-7.1-3.9-9.7-9.4-12-16.8l1.3,1.2c7.8,7.6,18.1,11.5,28.9,12.3
	c21.2,1.5,36.4-5.8,52.1-19.3c-13-0.7-22.7-5.6-31.9-14.7c10.9,2.9,22.1,2.5,32.3-2.4c-8.8,0.9-17.8,0.3-25.8-3.7
	c-8.9-4.3-14.1-11.4-17.3-20.5c18.7,4.5,38,4,55.8-3.7c16.2-7,29.9-20.6,36.5-37c-3.4,1.8-6.7,3.4-10.4,4.5
	c-8,2.3-17.1,2.1-24.4-2.2c-7.4-4.4-11.2-11.5-13.3-19.5c1.9,0.8,3.8,1.4,5.8,1.9s4,0.9,6,1.1c19.1,2.3,35.3-6,49.8-17.4
	c-5.4-0.5-10.4-1.1-15.5-3.2c-7.9-3.2-14.2-8.9-17.6-16.8c0.4-0.4,0.8-0.9,1.1-1.3c15.3-18.7,21-35.5,18.8-59.5
	c2.2,5.3,4.2,10.6,5.3,16.2c2.9,14.6,1.7,30.2-6.7,42.8c4.2-2.4,8.1-5.6,11.6-9c12.1-11.7,19.7-28.4,19.8-45.3
	c0.2-27.4-14.2-45.5-32.6-64c8.6,2.6,15.8,6.2,22.1,12.7c11.4,11.5,19.2,29,19,45.3c5.7-9.2,9-17.6,10.4-28.4
	c2.6-20.6-2.8-39.3-15.4-55.7c3.9-2.3,7.4-5.2,10.6-8.4c13.9-14.2,14.9-30.5,14.7-49.4l-1.1,2.2c-3.3,6.5-7.9,12.4-14.1,16.4
	c-5.4,3.4-11.7,4.9-17.9,3.4c-9.7-2.4-15.5-9.9-20.4-18c2.9-1.4,5.7-2.9,8.4-4.6c9.3-5.8,12.4-13,14.7-23.2
	c-1.8,1.6-3.7,3.3-5.8,4.6c-5.1,3.1-11.2,4.4-17,2.8c-8.8-2.4-14.3-10.4-18.4-17.9c6.4,1.6,13.4,2.6,19.9,2
	c12.5-1.1,23.4-6.5,31.5-16.1c10.8-13,13.2-28.4,11.7-44.7c-1.8,2.4-3.6,4.7-5.9,6.7c-7.9,6.9-18,8.9-28.3,8.3
	c-18.8-1.2-32.5-12.6-44.5-26.1c13.4-4.2,25.8-8.9,32.7-22c5.5-10.5,5.6-23.1,2.1-34.2c-0.6,3.3-1.3,6.6-2.7,9.7
	c-2.6,5.8-7.1,9.6-13.1,11.7c-28.2,9.7-47.5-22.5-65.2-38.1c-8.2-7.3-17.4-12.3-27.2-17.1c7.8-0.2,15.1,0.6,22.4,3.3
	c11,4,18.7,10.6,23.6,21.2c-0.3-3.2-0.6-6.4-1.4-9.6c-4.8-19.6-21.2-37.2-38.1-47.3c-9.7-5.8-19.6-9.9-30.8-11.8
	c-5.9-1-11.9-1.6-17.7-3.1c-7.2-1.9-13.7-5.6-20.5-8.3c-19.2-7.7-37.4-6.8-57-1.8c0.9-2.4,1.9-4.8,3-7.1c1.1-2.3,2.3-4.6,3.6-6.8
	c1.3-2.2,2.7-4.3,4.2-6.4c1.5-2.1,3.1-4.1,4.8-6c14.2-16.2,32.3-25.9,53.8-27.3c-6.5-1.9-12.8-3.4-19.5-3.8
	c-24.7-1.7-47.4,7.6-65.9,23.6c-2.3-3-4.8-5.5-7.6-7.9c-16.3-13.9-36.7-19.1-57.9-17.3c-19.8,1.7-37.7,9.7-50.5,25
	c-11.1-3.9-22.1-5.4-33.9-4.2c-23,2.4-43.4,15.2-57.7,33.1c-14.7,18.5-20.9,39.3-18.3,62.6c-4.5-4.6-9.8-8.3-15-12.1
	c-0.7-5-1.1-10.1-0.8-15.2c1.3-18.7,12-32.6,25.5-44.5c-12.3,3.5-22.9,9.7-30.4,20.3c-7.9,11.1-9.7,23.6-7.4,36.8
	c-3-0.9-6-1.6-9.1-2c-16-2.5-33.6-0.8-47,9.1c-13.5,10-17.5,22.9-20,38.8c6.2-10.2,13.7-18.6,25.3-22.8c10.4-3.8,20.4-1.9,30.2,2.7
	c-12.7,3.3-20.2,9-29.7,17.8c-4.1,3.8-8.2,7.4-13.5,9.5c-14.1,5.5-36.6,2.1-50.1-3.6c0.3,0.5,0.6,1.1,0.9,1.6
	c6.2,10.1,14.9,17.8,26.6,20.5c-2.5,1.1-5,2.3-7.5,3.5c-20.2,10.2-36.9,29.7-43.7,51.3c-4.9,15.5-4.2,30,3.3,44.4
	c-0.7-12.5,0.4-22.5,7.2-33.3c9.6-15.2,25.8-24.7,43.1-28.5c-1.8,1.2-3.7,2.5-5.4,3.8c-15.2,11.6-26.9,27.6-30.5,46.7
	c-1.1,5.8-1.1,11.7-2,17.5c-1.5,10.3-7,18-15.2,24.2c-10.5,7.8-24.4,11.7-37.5,9.7c-10.6-1.6-17.8-7.4-24.1-15.8
	c0.4,10,2.9,19.1,8.2,27.7c7.9,12.5,17.7,18.6,31.8,22c-6.2,6.2-11.9,12.5-16.1,20.2c-10.2,18.2-12.7,42.6-6.9,62.7
	c5.7,19.7,18.3,33.4,36,43.1c-12.4-12.9-19.9-28.7-21.3-46.7c-1.3-15.8,4.3-29.5,14.5-41.4c-3.4,7.5-7.1,13.2-7.9,21.5
	c-1.9,18,5.7,34.6,19.1,46.4c6.3,5.5,13.4,10.3,18.7,16.8c4.2,5.2,7.1,11.4,6.2,18.3c-0.9,6.6-5.2,13.4-10.5,17.4
	c-4.7,3.5-10.3,5.1-16.2,4.1c-8.6-1.5-13.8-7.1-18.7-13.8c0,8.6,1.7,16.1,6.5,23.3c0.3,0.5,0.7,1,1.1,1.5c0.4,0.5,0.8,1,1.1,1.5
	s0.8,1,1.2,1.4c0.4,0.5,0.8,0.9,1.3,1.4c0.4,0.4,0.9,0.9,1.4,1.3c0.5,0.4,0.9,0.8,1.4,1.2c0.5,0.4,1,0.8,1.5,1.2s1,0.7,1.5,1.1
	c0.5,0.3,1,0.7,1.6,1c0.5,0.3,1.1,0.6,1.6,0.9s1.1,0.6,1.7,0.8c0.6,0.3,1.1,0.5,1.7,0.8c0.6,0.2,1.2,0.5,1.7,0.7
	c0.6,0.2,1.2,0.4,1.8,0.6c0.6,0.2,1.2,0.3,1.8,0.5c0.6,0.2,1.2,0.3,1.8,0.4c12.2,2.3,23.8-0.8,34-7.7c0.3,5.2,0.6,10.5,0.6,15.8
	c-0.1,10.5-2.5,20.5-10.3,28c-8.2,7.8-19.5,10.1-30.5,9.8c8.9,9.9,20.1,16.3,33.5,17.5c18,1.6,28.5-4.2,41.9-15.3v1.1
	c0.3,17.5-3.9,27.8-16.1,40.4c5.3-1.7,10.6-3.5,15.6-5.7c5-2.3,10.1-5.4,15.4-7c7-2,14.7-1.2,22-2.9c-0.3,1.7-0.7,3.4-1.2,5.1
	c-1.6,6.2-5.4,11.2-11,14.3c-9.1,5.1-20.3,4.8-30,2.1c4.9,11,11.6,19.4,21.4,26.4c14.7,10.4,30.8,12.9,48.4,9.9
	c-1.7,2.1-4,4.8-6.5,6c-6.1,3.2-14.3,4.5-21,6.3c-12.7,3.5-52,14.5-59.6,23.6c-7.8,9.3-5.9,22.8-10.5,33.5
	c-2.6,5.8-6.7,11-10.4,16.2c-9.1,13-21.1,30.5-19.2,47.2c1.2,10.3,7.4,15,14.8,21.1c-2.6,2.5-5.7,4.9-9.1,7.1
	C85.2,836.8,0,684.3,0,512C0,229.2,229.2,0,512,0S1024,229.2,1024,512z"/>
</svg>
