<?xml version="1.0" encoding="utf-8" ?>
<svg xmlns="http://www.w3.org/2000/svg" xmlns:xlink="http://www.w3.org/1999/xlink" width="1024" height="1024">
	<defs>
		<linearGradient id="gradient_0" gradientUnits="userSpaceOnUse" x1="518.80688" y1="1039.0049" x2="485.20755" y2="103.519">
			<stop offset="0" stop-color="#160001"/>
			<stop offset="1" stop-color="#612A1A"/>
		</linearGradient>
	</defs>
	<path fill="url(#gradient_0)" d="M0 0L1024 0L1024 1024L952.576 1024L620.658 1024L602.718 1024L439.617 1024L421.59 1024L84.4415 1024L0 1024L0 0Z"/>
	<path fill="#602C1B" d="M557.007 417.901C559.342 419.053 572.287 438.334 573.286 441.19C572.959 441.079 572.446 440.929 572.123 440.744C566.839 437.717 558.769 423.391 557.007 417.901Z"/>
	<path fill="#340E0B" d="M610.723 459.569L614.501 459.415L614.5 460.064L611.401 460.366L611.187 460.825C612.372 461.584 613.909 460.71 614.644 461.549C614.329 462.64 614.001 463.293 613.338 464.187C612.482 465.344 612.425 466.075 612.215 467.443C612.057 468.47 611.907 469.225 611.313 470.105C620.149 469.927 628.892 468.364 637.762 468.23L637.364 467.841L637.657 467.548L637.152 465.233L637.603 465.165C637.915 466.016 638.158 466.819 638.342 467.706C641.985 469.594 653.081 466.628 658.834 468.976C650.822 469.577 642.711 469 634.676 469.264C627.462 469.5 620.564 470.515 613.427 471.233C611.963 471.381 609.339 471.983 608.077 471.111C609.349 469.586 609.915 462.302 610.723 459.569Z"/>
	<path fill="#6E331E" d="M415.999 274.673C422.484 275.896 432.268 278.424 437.852 281.873L437.458 282.527C430.257 282.418 423.133 284.107 415.902 284.105L415.999 274.673Z"/>
	<path fill="#FCF1DB" d="M460.283 143.162C460.317 143.156 460.351 143.144 460.386 143.142C462.018 143.024 462.345 142.944 463.713 143.902L463.739 144.752C461.57 147.375 449.048 149.507 445.086 151.101C438.081 153.92 431.62 157.725 425.228 161.702C424.463 162.02 423.838 162.161 423.032 162.317L422.737 161.866C422.914 161.582 423.115 161.235 423.33 160.967C430.594 151.947 448.954 144.889 460.283 143.162Z"/>
	<path fill="#340E0B" d="M761.355 383.807C762.648 384.941 769.153 403.713 774.463 409.812C777.499 413.298 781.84 415.245 785.416 418.107L785.776 418.401C778.044 418.621 772.06 415.8 765.261 412.593C764.903 402.59 763.083 393.596 761.355 383.807Z"/>
	<path fill="#DB724F" d="M318.489 566.102C321.754 577.802 326.074 588.239 332.888 598.32C330.884 597.785 328.963 597.233 327.156 596.186C321.285 592.786 316.699 586.516 315.082 579.923C313.659 574.12 315.522 570.833 318.489 566.102Z"/>
	<path fill="#DB724F" d="M629.32 432.957C635.311 442.744 641.836 451.697 651.837 457.791Q641.418 458.079 630.996 457.961C627.848 454.8 626.252 451.515 624.475 447.506C625.633 442.785 627.494 437.46 629.32 432.957Z"/>
	<path fill="#602C1B" d="M367.897 244.789L368.241 244.992C366.993 249.09 364.295 253.329 362.361 257.184Q360.085 257.543 357.833 258.031Q355.581 258.518 353.36 259.133Q351.139 259.748 348.957 260.487Q346.775 261.227 344.638 262.089Q342.501 262.95 340.416 263.932Q338.332 264.914 336.306 266.012Q334.28 267.111 332.32 268.322Q330.36 269.533 328.472 270.854L328.146 270.24C328.717 267.727 331.082 265.222 332.686 263.245C342.009 251.757 353.347 246.302 367.897 244.789Z"/>
	<path fill="#BA563C" d="M624.335 420.8C625.837 424.914 627.862 428.869 629.32 432.957C627.494 437.46 625.633 442.785 624.475 447.506C626.252 451.515 627.848 454.8 630.996 457.961L620.389 458.702C618.499 459.06 616.233 458.78 614.501 459.415L610.723 459.569C609.22 459.825 607.971 459.93 606.448 459.865C606.363 459.668 606.173 459.488 606.193 459.275C606.313 457.999 607.86 455.409 608.407 454.108C611.198 447.469 612.962 440.666 612.181 433.412L612.712 432.264L613.825 431.898C614.181 434.603 614.666 437.138 615.384 439.773C621.404 434.176 623.364 428.784 624.335 420.8Z"/>
	<path fill="#FCB47A" d="M624.475 447.506C626.252 451.515 627.848 454.8 630.996 457.961L620.389 458.702L619.419 458.474L619.17 457.783C620.395 454.244 622.786 450.885 624.475 447.506Z"/>
	<path fill="#602C1B" d="M748.799 443.015L749.724 442.82C750.176 444.705 748.628 448.377 747.861 450.182C745.967 454.641 738.795 458.363 734.437 460.128C728.55 462.511 722.179 463.623 716.208 460.917C705.188 455.923 698.271 444.904 694.025 434.027C692.642 430.484 686.609 416.055 687.783 413.395C689.602 416.23 690.545 419.266 692.033 422.253C695.305 428.819 699.339 434.191 704.355 439.519C710.706 445.715 720.945 450.224 729.854 450.132C736.574 450.062 744.003 447.867 748.799 443.015Z"/>
	<path fill="#602C1B" d="M415.774 986.105C415.967 983.918 415.731 981.693 415.862 979.494C416.019 976.85 416.534 974.045 418.7 972.28C420.406 970.889 423.144 970.247 425.309 970.535C430.776 971.261 431.889 978.319 434.731 981.976C434.909 982.205 435.093 982.429 435.275 982.656C435.381 985.636 435.185 989.302 436.678 991.946C435.327 997.872 439.137 1016.58 439.617 1024L421.59 1024C420.583 1014.24 420.273 1003.39 417.963 993.914C417.373 991.249 416.61 988.7 415.774 986.105Z"/>
	<path fill="#602C1B" d="M606.023 984.861C607.674 979.852 609.267 973.804 614.355 971.164C615.976 970.324 617.815 969.869 619.598 970.501C622.346 971.475 623.915 974.42 624.989 976.926C626.206 979.765 625.875 982.133 626.225 985.065C625.291 987.821 623.724 991.162 625.036 993.989L624.249 994.32C621.831 1001.83 621.386 1015.81 620.658 1024L602.718 1024C603.008 1017.81 606.288 996.88 605.185 992.651C605.85 990.01 605.961 987.559 606.023 984.861Z"/>
	<path fill="#6E331E" d="M425.579 295.991C438.076 297.295 444.394 296.966 455.847 303.714C464.549 308.842 471.408 317.1 476.197 325.89C477.556 328.384 478.479 331.106 479.876 333.567C481.422 336.29 484.258 338.922 485.028 341.917C484.331 342.107 483.96 342.087 483.255 341.902C462.453 336.457 447.258 323.374 434.038 306.948C431.181 303.398 427.947 299.885 425.579 295.991Z"/>
	<path fill="#6E331E" d="M368.009 274.022C368.329 274.504 368.387 274.413 368.102 275.161C367.912 275.657 367.496 276.034 367.231 276.493C360.014 288.983 361.817 304.817 365.418 318.107C358.004 324.172 354.058 336.965 345.147 340.724C344.281 339.656 343.427 338.573 342.827 337.329C338.496 328.353 339.861 313.667 342.938 304.505C347.373 291.295 355.494 280.307 368.009 274.022Z"/>
	<defs>
		<linearGradient id="gradient_1" gradientUnits="userSpaceOnUse" x1="421.12762" y1="992.38373" x2="423.49826" y2="951.44202">
			<stop offset="0" stop-color="#774836"/>
			<stop offset="1" stop-color="#A57259"/>
		</linearGradient>
	</defs>
	<path fill="url(#gradient_1)" d="M417.963 993.914C414.853 993.312 411.9 992.258 409.244 990.514C404.248 987.232 401.388 982.28 400.328 976.461C399.246 970.52 400.658 964.07 404.304 959.233C407.813 954.577 413.028 951.716 418.794 951.012C425.193 950.23 431.558 952.275 436.5 956.37C441.8 960.761 444.461 966.988 444.894 973.764C445.377 981.315 441.444 986.632 436.678 991.946C435.185 989.302 435.381 985.636 435.275 982.656C435.093 982.429 434.909 982.205 434.731 981.976C431.889 978.319 430.776 971.261 425.309 970.535C423.144 970.247 420.406 970.889 418.7 972.28C416.534 974.045 416.019 976.85 415.862 979.494C415.731 981.693 415.967 983.918 415.774 986.105C416.61 988.7 417.373 991.249 417.963 993.914Z"/>
	<path fill="#160808" d="M415.774 986.105C414.575 984.852 413.323 983.597 412.23 982.251C410.317 979.896 409.19 976.641 409.627 973.599C410.104 970.286 412.27 967.513 415.009 965.698C418.216 963.573 422.187 962.724 425.944 963.66Q426.567 963.813 427.172 964.027Q427.777 964.241 428.358 964.514Q428.939 964.787 429.489 965.117Q430.04 965.446 430.555 965.829Q431.07 966.212 431.544 966.645Q432.018 967.077 432.447 967.554Q432.876 968.032 433.255 968.549Q433.634 969.067 433.96 969.62C436.401 973.776 436.331 978.138 435.275 982.656C435.093 982.429 434.909 982.205 434.731 981.976C431.889 978.319 430.776 971.261 425.309 970.535C423.144 970.247 420.406 970.889 418.7 972.28C416.534 974.045 416.019 976.85 415.862 979.494C415.731 981.693 415.967 983.918 415.774 986.105Z"/>
	<defs>
		<linearGradient id="gradient_2" gradientUnits="userSpaceOnUse" x1="614.34845" y1="992.38922" x2="619.84937" y2="951.41266">
			<stop offset="0" stop-color="#79422F"/>
			<stop offset="1" stop-color="#A1755B"/>
		</linearGradient>
	</defs>
	<path fill="url(#gradient_2)" d="M605.185 992.651C600.836 990.753 597.904 986.715 596.229 982.369C593.946 976.447 594.385 969.604 597.008 963.861Q597.234 963.359 597.485 962.868Q597.736 962.378 598.012 961.901Q598.287 961.424 598.586 960.961Q598.884 960.498 599.206 960.051Q599.527 959.603 599.871 959.173Q600.214 958.742 600.579 958.329Q600.943 957.916 601.328 957.521Q601.713 957.127 602.117 956.753Q602.521 956.378 602.943 956.024Q603.365 955.67 603.804 955.338Q604.243 955.005 604.699 954.695Q605.154 954.385 605.624 954.098Q606.094 953.811 606.578 953.548Q607.062 953.285 607.559 953.046Q608.055 952.808 608.563 952.594Q609.071 952.381 609.589 952.193Q610.112 951.995 610.644 951.823Q611.176 951.65 611.716 951.504Q612.256 951.358 612.802 951.239Q613.348 951.12 613.9 951.028Q614.451 950.936 615.007 950.871Q615.562 950.806 616.12 950.768Q616.678 950.731 617.237 950.72Q617.796 950.71 618.355 950.728Q618.914 950.745 619.472 950.79Q620.029 950.835 620.584 950.907Q621.138 950.98 621.688 951.079Q622.239 951.179 622.783 951.305Q623.328 951.432 623.866 951.585Q624.404 951.738 624.933 951.917Q625.463 952.096 625.983 952.301Q626.504 952.507 627.013 952.737Q627.504 952.963 627.982 953.214Q628.461 953.464 628.925 953.74Q629.39 954.015 629.84 954.313Q630.29 954.612 630.724 954.934Q631.159 955.255 631.576 955.599Q631.992 955.942 632.391 956.306Q632.79 956.671 633.169 957.055Q633.549 957.44 633.908 957.843Q634.267 958.247 634.604 958.668Q634.942 959.09 635.258 959.528Q635.574 959.967 635.866 960.421Q636.159 960.875 636.428 961.343Q636.697 961.812 636.941 962.294Q637.185 962.775 637.405 963.269Q637.624 963.763 637.817 964.267Q638.011 964.771 638.178 965.285C640.072 970.982 640.018 978.034 637.077 983.378C634.367 988.302 630.144 991.8 625.036 993.989C623.724 991.162 625.291 987.821 626.225 985.065C625.875 982.133 626.206 979.765 624.989 976.926C623.915 974.42 622.346 971.475 619.598 970.501C617.815 969.869 615.976 970.324 614.355 971.164C609.267 973.804 607.674 979.852 606.023 984.861C605.961 987.559 605.85 990.01 605.185 992.651Z"/>
	<path fill="#160808" d="M606.023 984.861C604.123 980.021 602.742 975.864 604.943 970.757Q605.203 970.166 605.52 969.603Q605.838 969.041 606.21 968.513Q606.582 967.985 607.005 967.497Q607.428 967.009 607.898 966.566Q608.368 966.122 608.879 965.728Q609.391 965.334 609.939 964.993Q610.488 964.652 611.068 964.368Q611.648 964.083 612.253 963.858Q612.911 963.609 613.591 963.429Q614.272 963.249 614.967 963.141Q615.662 963.033 616.365 962.997Q617.068 962.962 617.771 963Q618.473 963.037 619.168 963.147Q619.863 963.258 620.543 963.439Q621.223 963.621 621.88 963.873Q622.537 964.124 623.165 964.442C626.184 965.943 628.695 968.54 629.734 971.787C630.676 974.734 630.333 978.19 628.869 980.909C628.098 982.341 627.126 983.712 626.225 985.065C625.875 982.133 626.206 979.765 624.989 976.926C623.915 974.42 622.346 971.475 619.598 970.501C617.815 969.869 615.976 970.324 614.355 971.164C609.267 973.804 607.674 979.852 606.023 984.861Z"/>
	<path fill="#6E331E" d="M388.669 318.56C389.343 318.542 389.96 318.662 390.624 318.765C394.716 322.654 397.159 329.934 399.249 335.075C391.579 345.114 389.228 357.32 385.79 369.142C385.61 369.762 385.447 370.382 385.289 371.01C383.985 368.307 377.175 367.036 374.355 366.041C368.665 362.849 361.102 356.763 357.879 351.082C357.113 349.732 357.165 348.395 357.6 346.945C359.485 340.66 370.755 329.786 376.078 325.91C380.045 323.021 384.318 320.796 388.669 318.56Z"/>
	<path fill="#6E331E" d="M417.712 310.134C424.499 313.651 431.226 317.081 436.915 322.287C447.035 331.548 452.497 342.319 457.903 354.652C459.055 357.28 461.069 360.677 461.194 363.512C446.259 363.426 435.228 360.878 422.429 353.023C417.366 343.626 414.929 320.359 417.712 310.134Z"/>
	<path fill="#602C1B" d="M261.915 488.472L262.013 489.327C257.476 496.502 255.838 503.191 256.005 511.658C256.288 525.958 262.522 542.908 270.992 554.384C273.976 558.428 277.525 561.869 281.142 565.335C275.456 565.757 270.429 565.809 264.804 564.81C255.929 561.571 248.448 558.923 243.413 550.316C237.501 540.209 236.842 526.721 239.9 515.609C243.193 503.64 251.264 494.563 261.915 488.472Z"/>
	<path fill="#FCF1DB" d="M543.793 124.705C557.194 122.872 570.433 127.044 581.882 133.675C574.005 141.109 566.843 149.375 559.523 157.353L550.551 152.546C536.573 145.448 521.735 142.209 506.103 141.802C516.257 130.632 528.979 126.074 543.793 124.705Z"/>
	<path fill="#6E331E" d="M436.065 223.757C439.821 226.039 443.415 229.013 447.013 231.565C459.516 240.434 473.045 248.353 488.73 249.121C497.524 249.551 507 248.335 513.693 242.051C516.018 239.869 517.655 237.139 520.04 235.015C520.151 234.916 520.265 234.82 520.378 234.723C516.544 244.17 513.874 249.113 506.269 255.989C497.09 263.065 488.488 266.429 477.044 267.991C459.407 270.398 437.029 268.326 422.379 257.269C424.953 245.973 429.692 233.392 436.065 223.757Z"/>
	<path fill="#340E0B" d="M704.355 439.519L704.487 438.941C705.807 432.896 705.6 426.595 705.315 420.451C704.48 402.487 701.114 386.488 691.165 371.228Q687.735 365.964 683.653 361.188Q679.571 356.412 674.905 352.205C672.866 350.379 664.259 344.557 663.868 342.69C670.701 341.971 691.608 350.681 698.398 354.37C702.809 356.766 707.46 360.117 711.375 363.266C733.135 380.772 738.456 401.026 744.537 426.774C745.828 432.238 747.47 437.583 748.799 443.015C744.003 447.867 736.574 450.062 729.854 450.132C720.945 450.224 710.706 445.715 704.355 439.519Z"/>
	<path fill="#DB724F" d="M254.267 576.4C258.232 580.622 262.817 584.257 267.228 587.999C282.129 597.829 296.826 603.099 314.547 605.501C317.957 605.581 321.373 605.746 324.774 605.429C325.351 611.264 327.037 616.866 327.816 622.653L328.912 625.968C330.241 638.012 332.895 650.661 335.695 662.456C330.825 663.454 325.528 663.163 320.671 662.221C298.18 657.858 276.421 638.049 264.158 619.477C255.531 606.411 251.065 591.967 254.267 576.4Z"/>
	<path fill="#BA563C" d="M267.228 587.999C282.129 597.829 296.826 603.099 314.547 605.501C317.957 605.581 321.373 605.746 324.774 605.429C325.351 611.264 327.037 616.866 327.816 622.653C326.681 623.097 326.912 623.237 325.664 622.775C309.312 623.777 297.353 623.186 283.172 613.807C273.641 607.504 269.465 598.933 267.228 587.999Z"/>
	<path fill="#BA563C" d="M314.547 605.501C317.957 605.581 321.373 605.746 324.774 605.429C325.351 611.264 327.037 616.866 327.816 622.653C326.681 623.097 326.912 623.237 325.664 622.775L326.57 622.157C326.42 622.055 326.288 621.916 326.119 621.85C324.615 621.259 324.068 621.153 322.88 619.97C319.642 616.749 314.662 610.126 314.547 605.501Z"/>
	<path fill="#BD8769" d="M430.37 926.744C431.464 926.507 432.192 926.419 433.297 926.704C437.841 927.874 441.799 930.239 446.173 931.717Q461.921 937.027 478.123 940.73C493.166 944.245 509.27 946.528 524.724 945.869C547.264 944.908 568.721 939.253 590.106 932.399C593.303 931.375 604.239 926.778 606.96 928.231C592.797 939.229 577.658 949.254 562.988 959.584C548.41 969.849 534.172 980.493 519.88 991.147C490.798 968.602 460.288 948.127 430.37 926.744Z"/>
	<path fill="#DB724F" d="M339.245 461.661C364.297 445.205 380.255 424.075 386.372 394.395C387.822 387.361 389.109 380.242 390.281 373.155C392.141 361.91 392.278 348.22 403.061 341.321C404.603 340.335 406.308 339.53 408.167 339.686C410.677 342.127 411.565 357.307 412.642 361.757C418.393 385.525 429.119 414.017 451.33 426.855C456.004 429.556 461.311 431.736 466.753 431.951C467.015 431.961 467.277 431.98 467.539 431.993L468.011 432.011C484.541 451.916 494.321 461.702 518.91 471.164C508.593 464.641 502.759 455.93 498.068 444.799C511.917 464.421 530.782 478.073 553.739 485.194C551.681 486.678 550.004 488.146 548.24 489.97C544.739 487.904 540.282 486.59 536.479 485.062C527.236 481.348 517.786 477.861 508.739 473.692C501.759 470.476 495.105 467.202 488.844 462.706C483.5 458.868 478.558 454.258 472.909 450.877C465.816 446.632 457.826 443.788 450.621 439.626C422.405 423.327 411.064 403.967 400.134 374.411C387.426 399.195 389.382 437.946 369.15 457.635C371.804 457.468 374.356 457.455 377.013 457.572C359.648 459.04 359.461 460.037 346.15 470.962C344.198 471.423 342.26 471.899 340.276 472.206C338.676 472.096 337.554 472.409 336.444 471.198C335.926 468.092 338.079 464.503 339.245 461.661Z"/>
	<path fill="#602C1B" d="M550.659 347.681L549.103 346.168L549.156 345.099C551.942 343.26 562.437 341.015 566.504 339.506C572.71 337.204 578.711 334.362 584.712 331.58C593.979 332.362 614.926 344.932 624.17 349.536C634.047 354.457 644.051 358.563 653.31 364.713C661.059 369.86 667.146 376 674.035 382.129C669.729 387.006 665.098 391.067 659.197 393.924C648.279 399.212 637.681 398.772 626.273 395.456C623.231 394.572 619.844 393.692 617.413 391.556C614.343 388.859 612.198 384.818 609.803 381.53Q606.63 377.242 602.918 373.412Q599.205 369.582 595.018 366.278C581.981 356.138 568.084 351.255 552.778 345.895C552.912 346.078 553.042 346.265 553.181 346.444C555.653 349.641 565.322 354.875 569.298 358.09C589.598 374.503 602.588 390.094 610.199 415.428C611.727 420.516 613.651 426.587 613.825 431.898L612.712 432.264L612.181 433.412C611.911 432.877 612.002 433.157 611.907 432.471C611.733 431.219 611.544 429.985 611.284 428.748C608.934 417.574 606.405 409.523 601.045 399.333C599.295 396.007 597.634 392.434 595.497 389.338C588.334 378.962 577.283 370.845 567.799 362.7C562.207 357.897 556.789 351.665 550.659 347.681Z"/>
	<path fill="#FCB47A" d="M400.134 374.411C411.064 403.967 422.405 423.327 450.621 439.626C457.826 443.788 465.816 446.632 472.909 450.877C478.558 454.258 483.5 458.868 488.844 462.706C495.105 467.202 501.759 470.476 508.739 473.692C517.786 477.861 527.236 481.348 536.479 485.062C540.282 486.59 544.739 487.904 548.24 489.97C544.874 493.401 541.601 496.459 537.406 498.854C528.369 499.043 519.27 498.531 510.197 498.674C507.623 498.714 503.835 498.934 501.49 497.845C498.294 496.362 495.056 492.304 492.363 489.94C489.232 487.19 485.558 485.091 482.583 482.214C480.262 477.772 478.026 472.856 474.435 469.283C462.872 457.777 395.246 457.537 377.013 457.572C374.356 457.455 371.804 457.468 369.15 457.635C389.382 437.946 387.426 399.195 400.134 374.411Z"/>
	<path fill="#6E331E" d="M581.798 262.453C589.947 264.42 598.722 264.859 607.05 265.787C612.11 266.351 617.361 267.335 622.423 267.635C625.246 267.803 629.519 266.52 632.07 267.438C638.951 269.916 642.316 279.05 645.032 285.221C637.422 284.33 630.157 281.666 622.524 281.12C623.34 282.907 623.355 284.066 622.632 285.904C621.897 287.775 620.512 289.915 619.284 291.508C619.343 291.543 619.403 291.578 619.461 291.614C628.371 297.127 641.749 302.269 652.31 301.9C659.859 301.636 664.361 297.603 669.206 292.394C668.254 296.346 667.434 300.425 666.196 304.296C662.738 315.111 654.814 323.188 644.799 328.209C627.159 337.053 611.055 335.377 592.907 329.374C596.76 326.702 604.899 318.669 605.901 314.093C603.725 314.505 601.701 316.239 599.635 317.097C579.271 325.549 531.695 298.909 511.551 289.992C502.962 286.189 493.753 283.731 485.137 279.942C492.7 279.983 500.451 281.576 507.989 282.35C545.022 286.155 551.501 281.651 581.798 262.453Z"/>
	<path fill="#602C1B" d="M595.374 278.793C604.446 279.353 613.447 280.635 622.524 281.12C623.34 282.907 623.355 284.066 622.632 285.904C621.897 287.775 620.512 289.915 619.284 291.508C611.528 286.607 603.471 282.996 595.374 278.793Z"/>
	<defs>
		<linearGradient id="gradient_3" gradientUnits="userSpaceOnUse" x1="783.41925" y1="609.3299" x2="565.30359" y2="586.08008">
			<stop offset="0" stop-color="#CE6646"/>
			<stop offset="1" stop-color="#E8805D"/>
		</linearGradient>
	</defs>
	<path fill="url(#gradient_3)" d="M726.078 539.799Q726.524 540.488 726.934 541.199Q727.345 541.909 727.719 542.64Q728.093 543.37 728.43 544.118Q728.767 544.866 729.065 545.631Q729.364 546.395 729.624 547.173Q729.883 547.952 730.104 548.742Q730.324 549.533 730.504 550.334Q730.684 551.134 730.824 551.943Q730.963 552.751 731.062 553.566Q731.16 554.381 731.218 555.199Q731.275 556.018 731.291 556.839Q731.307 557.659 731.282 558.479Q731.256 559.3 731.19 560.117Q731.123 560.935 731.015 561.749Q730.907 562.562 730.759 563.369Q730.61 564.176 730.421 564.975C728.055 575.406 722.967 586.895 716.526 595.46C714.609 598.01 711.92 600.125 710.196 602.785C709.573 603.748 709.404 603.886 709.677 605.026C711.067 605.846 712.629 605.465 714.165 605.338C717.448 603.521 721.164 602.247 724.61 600.743C741.94 593.183 760.005 587.722 774.619 575.295C777.491 572.432 780.199 569.578 782.425 566.169C788.02 579.49 787.841 594.137 782.399 607.477C773.443 629.434 752.21 649.777 730.382 658.798C722.045 662.243 713.934 663.539 704.954 662.8C706.983 650.616 711.096 636.597 711.015 624.383C709.244 622.415 707.077 620.754 705.068 619.034C696.56 628.888 684.518 632.454 672.066 634.682C647.447 639.09 599.535 639.244 578.722 624.502C571 619.032 562.941 608.408 561.332 598.963Q562.686 600.62 564.133 602.198C579.362 618.581 597.384 621.015 618.756 621.646C638.001 622.214 667.306 623.591 685.081 616.282C690.86 613.906 695.953 610.217 700.458 605.922Q703.639 602.947 706.346 599.534Q709.053 596.122 711.227 592.348C718.98 578.777 725.625 555.432 726.078 539.799Z"/>
	<path fill="#BA563C" d="M774.619 575.295C774.541 588.034 771.655 599.4 762.346 608.59C752.724 618.09 738.923 622.919 725.52 622.732C721.501 622.675 717.485 622.258 713.491 621.834C713.606 619.014 715.658 607.435 714.437 605.564C714.372 605.466 714.255 605.413 714.165 605.338C717.448 603.521 721.164 602.247 724.61 600.743C741.94 593.183 760.005 587.722 774.619 575.295Z"/>
	<path fill="#BA563C" d="M411.884 768.237C436.164 785.479 468.742 810.044 497.559 817.522C509.839 820.709 524.469 821.161 536.972 819.013C567.022 813.851 604.561 787.327 628.773 768.902C629.542 775.727 629.828 794.533 628.548 801.275C628.413 828.69 627.153 855.595 637.094 881.731C645.827 883.159 654.668 884.406 663.196 886.815C650.012 898.051 635.532 907.96 621.505 918.118C617.489 921.027 611.386 926.452 606.96 928.231C604.239 926.778 593.303 931.375 590.106 932.399C568.721 939.253 547.264 944.908 524.724 945.869C509.27 946.528 493.166 944.245 478.123 940.73Q461.921 937.027 446.173 931.717C441.799 930.239 437.841 927.874 433.297 926.704C432.192 926.419 431.464 926.507 430.37 926.744C426.497 925.175 421.742 920.859 418.28 918.401Q396.408 903.106 375.322 886.744C384.352 884.37 393.813 883.516 402.981 881.738C413.85 856.658 412.397 827.862 411.941 801.088C411.416 791.608 410.626 777.433 411.884 768.237Z"/>
	<path fill="#340E0B" d="M411.884 768.237C436.164 785.479 468.742 810.044 497.559 817.522C509.839 820.709 524.469 821.161 536.972 819.013C567.022 813.851 604.561 787.327 628.773 768.902C629.542 775.727 629.828 794.533 628.548 801.275C606.32 817.706 573.649 845.972 548.349 855.354C541.839 857.768 534.932 858.964 528.019 859.415C516.707 860.154 504.464 859.419 493.661 855.763C473.604 848.973 428.772 815.8 411.941 801.088C411.416 791.608 410.626 777.433 411.884 768.237Z"/>
	<path fill="#160808" d="M377.013 457.572C395.246 457.537 462.872 457.777 474.435 469.283C478.026 472.856 480.262 477.772 482.583 482.214C485.558 485.091 489.232 487.19 492.363 489.94C495.056 492.304 498.294 496.362 501.49 497.845C503.835 498.934 507.623 498.714 510.197 498.674C519.27 498.531 528.369 499.043 537.406 498.854C541.601 496.459 544.874 493.401 548.24 489.97C550.004 488.146 551.681 486.678 553.739 485.194C568.26 478.836 579.663 475.708 595.171 472.965C599.389 472.219 603.786 471.176 608.077 471.111C609.339 471.983 611.963 471.381 613.427 471.233C620.564 470.515 627.462 469.5 634.676 469.264C642.711 469 650.822 469.577 658.834 468.976C666.599 468.774 674.521 469.155 682.258 469.826C690.923 470.578 735.611 475.634 739.684 480.197C743.156 484.085 740.829 505.705 739.724 511.178C730.798 519.423 726.531 520.88 726.054 534.731C725.996 536.418 726.036 538.112 726.078 539.799C725.625 555.432 718.98 578.777 711.227 592.348Q709.053 596.122 706.346 599.534Q703.639 602.947 700.458 605.922C695.953 610.217 690.86 613.906 685.081 616.282C667.306 623.591 638.001 622.214 618.756 621.646C597.384 621.015 579.362 618.581 564.133 602.198Q562.686 600.62 561.332 598.963C547.831 577.694 542.168 555.393 536.917 531.194L535.513 530.437C532.7 528.895 530.093 527.67 526.962 526.895C518.099 524.7 510.96 526.897 503.324 531.433C499.555 549.378 495.508 566.754 487.803 583.489C485.415 588.676 481.521 593.299 479.261 598.448C475.56 602.354 471.939 606.396 467.645 609.666C453.523 620.421 434.686 621.239 417.607 621.698C398.439 622.214 368.22 623.464 351.073 614.544C346.918 612.383 343.553 609.233 340.183 606.035C338.609 604.541 336.507 601.897 334.527 601.042L334.024 600.587C333.742 599.655 333.51 599.074 332.888 598.32C326.074 588.239 321.754 577.802 318.489 566.102C318.484 566.038 318.484 565.973 318.474 565.909C317.522 559.781 316.373 553.686 315.476 547.548C314.447 540.5 314.41 528.207 310.972 522.034C308.576 517.734 303.54 514.128 299.778 511.083L299.651 510.302C298.778 504.846 296.491 484.561 299.98 480.321C303.756 475.732 332.802 473.378 339.269 472.369L340.276 472.206C342.26 471.899 344.198 471.423 346.15 470.962C359.461 460.037 359.648 459.04 377.013 457.572Z"/>
	<path fill="#6E331E" d="M721.02 494.014C723.676 493.965 727.401 493.39 729.723 494.698C730.737 496.283 730.524 497.215 730.555 499.069C727.821 499.117 724.066 499.756 721.649 498.481C720.71 496.919 720.992 495.813 721.02 494.014Z"/>
	<path fill="#6E331E" d="M310.103 494.249C311.664 494.154 313.227 494.065 314.791 494.114C316.691 494.174 318.059 494.361 319.382 495.782C319.538 497.225 319.167 497.862 318.409 499.051C316.128 499.146 310.785 499.942 309.052 498.484C308.816 497.483 308.779 496.808 308.985 495.81C309.243 494.555 309.16 494.866 310.103 494.249Z"/>
	<path fill="#6E331E" d="M623.835 488.452C641.766 486.175 680.515 483.652 696.079 492.192C690.535 492.674 684.231 491.605 678.646 491.302C664.879 490.554 651.035 489.699 637.25 489.517C632.771 488.995 628.339 488.639 623.835 488.452Z"/>
	<path fill="#DB724F" d="M503.324 531.433C504.277 526.867 505.744 523.511 509.888 520.938C514.442 518.111 520.958 517.714 526.037 519.135C530.032 520.252 533.579 522.859 535.46 526.607C536.169 528.018 536.588 529.653 536.917 531.194L535.513 530.437C532.7 528.895 530.093 527.67 526.962 526.895C518.099 524.7 510.96 526.897 503.324 531.433Z"/>
	<path fill="#6E331E" d="M343.72 492.48C354.101 486.028 386.834 485.718 399.233 486.929C403.948 486.911 408.966 486.935 413.57 488.032C409.032 490.217 384.741 490.878 378.35 490.927C366.816 491.3 355.237 492.255 343.72 492.48Z"/>
	<path fill="#DB724F" d="M637.25 489.517C651.035 489.699 664.879 490.554 678.646 491.302C684.231 491.605 690.535 492.674 696.079 492.192C702.566 495.934 706.322 501.094 708.279 508.336C712.359 523.434 710.297 546.949 705.974 561.662C705.578 560.795 705.343 559.911 705.116 558.988C704.131 554.991 702.568 551.22 700.61 547.597C696.883 540.702 692.446 536.026 684.716 533.707C689.001 527.839 689.64 525.618 695.522 520.359C683.768 508.711 669.262 497.694 652.87 493.787C646.465 492.261 639.84 491.716 633.307 490.993L632.986 490.705C632.227 490.566 631.582 490.44 630.805 490.512C630.639 490.527 630.474 490.557 630.309 490.58L630.432 490.302C631.553 489.641 631.768 489.723 633.108 489.942C634.61 490.187 635.317 490.09 636.762 489.666C636.925 489.618 637.087 489.567 637.25 489.517Z"/>
	<path fill="#340E0B" d="M377.013 457.572C395.246 457.537 462.872 457.777 474.435 469.283C478.026 472.856 480.262 477.772 482.583 482.214C474.984 480.973 467.377 478.093 459.929 476.066Q451.175 473.679 442.23 472.161Q433.285 470.643 424.234 470.009C407.007 468.806 389.766 468.917 372.515 469.445C366.008 469.644 351.795 472.259 346.15 470.962C359.461 460.037 359.648 459.04 377.013 457.572Z"/>
	<path fill="#DB724F" d="M413.57 488.032C431.949 489.371 466.175 489.972 478.613 504.795C485.567 513.082 485.385 525.411 484.467 535.658C484.403 536.379 484.441 536.127 484.133 536.845C484.156 535.485 484.279 534.479 483.331 533.378C479.594 529.035 469.497 528.919 464.106 528.272C464.446 531.297 464.361 533.857 463.55 536.809L462.706 534.663C461.137 529.902 457.82 526.256 454.636 522.515L452.476 519.914C451.985 516.579 450.865 513.48 449.68 510.343C452.1 511.279 454.729 512.313 456.772 513.923C460.82 513.958 465.015 513.425 468.958 512.512C462.211 501.929 451.974 495.663 439.822 492.993C414.774 487.49 387.015 491.244 365.413 505.227C358.606 509.634 352.643 514.946 346.913 520.65C351.501 525.048 354.639 529.462 357.958 534.861C351.552 534.59 346.229 537.02 341.543 541.301C337.552 544.945 334.983 549.385 332.444 554.086C329.227 542.6 328.829 516.635 332.669 505.707C334.729 499.843 338.032 495.209 343.72 492.48C355.237 492.255 366.816 491.3 378.35 490.927C384.741 490.878 409.032 490.217 413.57 488.032Z"/>
	<path fill="#BD8769" d="M449.68 510.343C452.1 511.279 454.729 512.313 456.772 513.923C457.008 515.929 457.151 517.89 457.876 519.791C460.521 524.49 463.661 529.009 462.706 534.663C461.137 529.902 457.82 526.256 454.636 522.515L452.476 519.914C451.985 516.579 450.865 513.48 449.68 510.343Z"/>
	<path fill="#340E0B" d="M346.913 520.65C352.643 514.946 358.606 509.634 365.413 505.227C387.015 491.244 414.774 487.49 439.822 492.993C451.974 495.663 462.211 501.929 468.958 512.512C465.015 513.425 460.82 513.958 456.772 513.923C454.729 512.313 452.1 511.279 449.68 510.343C450.865 513.48 451.985 516.579 452.476 519.914L454.636 522.515C457.82 526.256 461.137 529.902 462.706 534.663L463.55 536.809C463.367 537.823 463.17 538.833 463 539.849C462.101 545.201 456.088 549.844 451.888 552.776C436.596 563.449 416.7 566.728 398.499 563.42Q397.212 563.185 395.94 562.883Q394.667 562.582 393.411 562.215Q392.156 561.848 390.921 561.416Q389.687 560.984 388.476 560.489Q387.265 559.994 386.082 559.436Q384.899 558.879 383.746 558.261Q382.593 557.643 381.474 556.966Q380.355 556.289 379.272 555.555Q378.19 554.821 377.147 554.032Q376.103 553.242 375.103 552.4Q374.102 551.558 373.146 550.665Q372.191 549.772 371.283 548.83Q370.375 547.889 369.517 546.901Q368.659 545.914 367.853 544.884Q367.048 543.853 366.297 542.782Q365.546 541.711 364.851 540.603C364.751 540.444 364.664 540.279 364.571 540.116C362.028 539.18 359.9 536.694 357.958 534.861C354.639 529.462 351.501 525.048 346.913 520.65Z"/>
	<path fill="#BD8769" d="M364.35 539.363C363.967 538.187 363.566 536.998 363.27 535.796C362.247 531.634 362.659 527.758 365.016 524.103C371.242 514.452 385.517 509.613 396.078 507.147C393.607 514.169 392.416 520.34 392.065 527.799C382.668 529.168 371.422 532.802 364.35 539.363Z"/>
	<path fill="#602C1B" d="M435.814 524.095C439.209 524.57 444.959 524.675 447.679 526.727C449.547 530.023 444.703 536.668 448.94 538.573Q448.686 539.139 448.411 539.695C444.743 547.072 438.236 552.388 430.445 554.897C423.158 557.243 415.55 556.816 408.732 553.207C400.788 549.002 395.887 541.8 393.312 533.34C393.985 531.465 392.955 530.295 393.532 528.295L394.202 528.383L394.901 529.371L394.993 527.296C399.138 525.686 404.418 525.394 408.824 524.633C411.362 529.124 414.095 533.164 419.374 534.558C421.152 535.028 423.01 535.121 424.837 535.236C430.404 532.667 433.011 529.355 435.814 524.095Z"/>
	<path fill="#FCF1DB" d="M452.476 519.914L454.636 522.515C457.82 526.256 461.137 529.902 462.706 534.663L463.55 536.809C463.367 537.823 463.17 538.833 463 539.849C462.101 545.201 456.088 549.844 451.888 552.776C436.596 563.449 416.7 566.728 398.499 563.42Q397.212 563.185 395.94 562.883Q394.667 562.582 393.411 562.215Q392.156 561.848 390.921 561.416Q389.687 560.984 388.476 560.489Q387.265 559.994 386.082 559.436Q384.899 558.879 383.746 558.261Q382.593 557.643 381.474 556.966Q380.355 556.289 379.272 555.555Q378.19 554.821 377.147 554.032Q376.103 553.242 375.103 552.4Q374.102 551.558 373.146 550.665Q372.191 549.772 371.283 548.83Q370.375 547.889 369.517 546.901Q368.659 545.914 367.853 544.884Q367.048 543.853 366.297 542.782Q365.546 541.711 364.851 540.603C364.751 540.444 364.664 540.279 364.571 540.116L364.35 539.363C371.422 532.802 382.668 529.168 392.065 527.799C392.425 529.65 392.713 531.55 393.312 533.34C395.887 541.8 400.788 549.002 408.732 553.207C415.55 556.816 423.158 557.243 430.445 554.897C438.236 552.388 444.743 547.072 448.411 539.695Q448.686 539.139 448.94 538.573C451.604 532.856 451.85 526.103 452.476 519.914Z"/>
	<path fill="#FCB47A" d="M464.106 528.272C469.497 528.919 479.594 529.035 483.331 533.378C484.279 534.479 484.156 535.485 484.133 536.845C483.014 556.225 475.69 581.585 460.591 594.853C445.627 608.003 422.991 607.145 404.241 607.082C396.785 607.057 389.303 607.195 381.862 606.655C368.537 605.688 356.469 602.35 347.415 591.91C339.311 582.565 333.111 566.389 332.444 554.086C334.983 549.385 337.552 544.945 341.543 541.301C346.229 537.02 351.552 534.59 357.958 534.861C359.9 536.694 362.028 539.18 364.571 540.116C364.664 540.279 364.751 540.444 364.851 540.603Q365.546 541.711 366.297 542.782Q367.048 543.853 367.853 544.884Q368.659 545.914 369.517 546.901Q370.375 547.889 371.283 548.83Q372.191 549.772 373.146 550.665Q374.102 551.558 375.103 552.4Q376.103 553.242 377.146 554.032Q378.19 554.821 379.272 555.555Q380.355 556.289 381.474 556.966Q382.593 557.643 383.746 558.261Q384.899 558.879 386.082 559.436Q387.265 559.994 388.476 560.489Q389.687 560.984 390.921 561.416Q392.156 561.848 393.411 562.215Q394.667 562.582 395.94 562.883Q397.212 563.185 398.499 563.42C416.7 566.728 436.596 563.449 451.888 552.776C456.088 549.844 462.101 545.201 463 539.849C463.17 538.833 463.367 537.823 463.55 536.809C464.361 533.857 464.446 531.297 464.106 528.272Z"/>
	<path fill="#FCB47A" d="M555.456 532.084C556.884 531.47 558.309 530.902 559.802 530.47C563.972 529.265 575.43 526.644 579.288 528.867L579.82 530.878C579.727 534.183 579.975 537.443 580.21 540.737C581.177 543.026 582.529 544.933 584.179 546.783C594.426 558.269 609.419 563.604 624.497 564.458C640.476 565.363 655.975 562.116 668.065 551.154C670.83 548.647 676.37 543.529 676.529 539.777L677.203 540.902L677.69 540.346C680.187 538.306 682.429 535.974 684.716 533.707C692.446 536.026 696.883 540.702 700.61 547.597C702.568 551.22 704.131 554.991 705.116 558.988C705.343 559.911 705.578 560.795 705.974 561.662C704.598 571.792 699.665 583.621 693.179 591.551C685.06 601.479 673.734 605.126 661.339 606.252C651.957 607.104 642.594 607.056 633.185 607.039C615.217 607.007 594.813 607.946 580.266 595.555C563.063 580.901 557.234 553.543 555.456 532.084Z"/>
	<defs>
		<linearGradient id="gradient_4" gradientUnits="userSpaceOnUse" x1="636.09723" y1="491.93814" x2="631.68732" y2="556.30078">
			<stop offset="0" stop-color="#0E0000"/>
			<stop offset="1" stop-color="#632916"/>
		</linearGradient>
	</defs>
	<path fill="url(#gradient_4)" d="M598.442 491.101C606.82 490.835 615.376 488.927 623.835 488.452C628.339 488.639 632.771 488.995 637.25 489.517C637.087 489.567 636.925 489.618 636.762 489.666C635.317 490.09 634.61 490.187 633.108 489.942C631.768 489.723 631.553 489.641 630.432 490.302L630.309 490.58C630.474 490.557 630.639 490.527 630.805 490.512C631.582 490.44 632.227 490.566 632.986 490.705L633.307 490.993C639.84 491.716 646.465 492.261 652.87 493.787C669.262 497.694 683.768 508.711 695.522 520.359C689.64 525.618 689.001 527.839 684.716 533.707C682.429 535.974 680.187 538.306 677.69 540.346L677.203 540.902L676.529 539.777C676.37 543.529 670.83 548.647 668.065 551.154C655.975 562.116 640.476 565.363 624.497 564.458C609.419 563.604 594.426 558.269 584.179 546.783C582.529 544.933 581.177 543.026 580.21 540.737C579.975 537.443 579.727 534.183 579.82 530.878L579.288 528.867C575.43 526.644 563.972 529.265 559.802 530.47C558.309 530.902 556.884 531.47 555.456 532.084Q555.173 529.003 555.21 525.909C555.263 517.167 557.365 508.275 563.913 502.04C571.623 494.699 588.151 490.728 598.442 491.101Z"/>
	<path fill="#BA563C" d="M598.442 491.101C606.82 490.835 615.376 488.927 623.835 488.452C628.339 488.639 632.771 488.995 637.25 489.517C637.087 489.567 636.925 489.618 636.762 489.666C635.317 490.09 634.61 490.187 633.108 489.942C631.768 489.723 631.553 489.641 630.432 490.302L630.309 490.58C630.474 490.557 630.639 490.527 630.805 490.512C631.582 490.44 632.227 490.566 632.986 490.705L633.307 490.993C626.816 491.325 620.318 490.994 613.832 491.549C609.273 491.939 604.942 493.087 600.458 493.645C599.902 492.08 599.822 492.04 598.442 491.101Z"/>
	<path fill="#E7C5AC" d="M579.82 530.878C581.658 525.807 587.524 519.406 591.157 515.359C590.813 523.004 590.907 530.848 593.906 538.02Q587.07 539.437 580.21 540.737C579.975 537.443 579.727 534.183 579.82 530.878Z"/>
	<path fill="#BD8769" d="M645.934 506.521C656.713 509.06 671.836 514.478 678.03 524.481C680.314 528.169 679.941 531.649 678.901 535.654C678.517 537.132 677.781 538.857 677.69 540.346L677.203 540.902L676.529 539.777C673.104 536.356 669.151 534.186 664.757 532.249C662.483 531.246 652.752 527.052 650.671 527.867C650.926 520.083 649.227 513.526 645.934 506.521Z"/>
	<path fill="#DB724F" d="M555.456 532.084Q555.173 529.003 555.21 525.909C555.263 517.167 557.365 508.275 563.913 502.04C571.623 494.699 588.151 490.728 598.442 491.101C599.822 492.04 599.902 492.08 600.458 493.645C589.835 496.67 580.217 502.403 573.803 511.614C576.078 512.752 578.205 513.624 580.629 514.397C584.508 513.178 588.343 511.906 592.154 510.49C591.879 511.948 591.752 514.025 591.157 515.359C587.524 519.406 581.658 525.807 579.82 530.878L579.288 528.867C575.43 526.644 563.972 529.265 559.802 530.47C558.309 530.902 556.884 531.47 555.456 532.084Z"/>
	<path fill="#FCF1DB" d="M650.671 527.867C652.752 527.052 662.483 531.246 664.757 532.249C669.151 534.186 673.104 536.356 676.529 539.777C676.37 543.529 670.83 548.647 668.065 551.154C655.975 562.116 640.476 565.363 624.497 564.458C609.419 563.604 594.426 558.269 584.179 546.783C582.529 544.933 581.177 543.026 580.21 540.737Q587.07 539.437 593.906 538.02C594.916 540.022 595.99 541.919 597.279 543.757C601.869 550.306 608.509 554.896 616.504 556.141C624.137 557.329 632.098 555.124 638.254 550.513C645.889 544.795 649.27 537.097 650.671 527.867Z"/>
	<path fill="#FCB47A" d="M503.324 531.433C510.96 526.897 518.099 524.7 526.962 526.895C530.093 527.67 532.7 528.895 535.513 530.437L536.917 531.194C542.168 555.393 547.831 577.694 561.332 598.963C562.941 608.408 571 619.032 578.722 624.502C599.535 639.244 647.447 639.09 672.066 634.682C684.518 632.454 696.56 628.888 705.068 619.034C707.077 620.754 709.244 622.415 711.015 624.383C711.096 636.597 706.983 650.616 704.954 662.8C700.801 678.923 696.785 695.489 687.264 709.45C679.256 727.174 644.258 756.286 628.773 768.902C604.561 787.327 567.022 813.851 536.972 819.013C524.469 821.161 509.839 820.709 497.559 817.522C468.742 810.044 436.164 785.479 411.884 768.237C387.412 749.863 360.077 726.864 347.334 698.413C342.053 686.677 338.58 674.946 335.695 662.456C332.895 650.661 330.241 638.012 328.912 625.968L327.816 622.653C327.037 616.866 325.351 611.264 324.774 605.429C328.4 604.509 331.449 603.175 334.527 601.042C336.507 601.897 338.609 604.541 340.183 606.035C343.553 609.233 346.918 612.383 351.073 614.544C368.22 623.464 398.439 622.214 417.607 621.698C434.686 621.239 453.523 620.421 467.645 609.666C471.939 606.396 475.56 602.354 479.261 598.448C481.521 593.299 485.415 588.676 487.803 583.489C495.508 566.754 499.555 549.378 503.324 531.433Z"/>
	<path fill="#DB724F" d="M486.183 704.766C492.249 703.832 498.146 702.113 504.258 701.316C516.536 699.714 541.542 699.6 552.607 704.385C558.563 705.462 580.224 707.468 583.326 711.407C582.987 712.586 583.327 712.252 582.304 712.787C577.724 715.185 557.448 710.799 550.721 710.317C540.982 709.619 531.246 710.488 521.503 710.469C509.87 710.447 498.348 709.601 486.71 710.463C481.214 710.87 462.624 715.356 458.866 713.567C457.572 712.951 457.53 712.684 457.154 711.41C458.1 709.811 460.342 709.387 462.086 708.936C469.945 706.902 478.42 706.955 486.183 704.766Z"/>
	<path fill="#BD8769" d="M486.183 704.766C492.249 703.832 498.146 702.113 504.258 701.316C516.536 699.714 541.542 699.6 552.607 704.385C552.794 704.519 552.977 704.66 553.17 704.787C553.854 705.235 554.118 705.317 554.901 705.362L555.079 705.781C549.831 706.395 543.464 704.885 538.067 704.808C526.885 704.649 515.538 704.783 504.358 704.928C499.194 704.995 491.671 706.591 486.856 704.975C486.633 704.901 486.408 704.836 486.183 704.766Z"/>
	<path fill="#DB724F" d="M485.188 630.529C486.749 629.514 488.173 628.784 490.007 628.39C499.844 626.277 539.311 625.809 548.964 627.993C551.462 628.558 553.288 629.143 555.253 630.808Q554.918 632.644 554.298 634.405Q553.678 636.165 552.789 637.806C548.493 645.626 540.179 650.721 531.728 652.921C520.906 655.739 508.81 654.533 499.138 648.766C491.876 644.436 487.218 638.816 485.188 630.529Z"/>
	<path fill="#DB724F" d="M347.334 698.413C347.804 698.524 348.351 698.466 348.743 698.748C350.562 700.051 352.799 704.629 354.177 706.686Q359.653 714.766 366.322 721.894C391.083 748.18 473.378 811.539 508.621 816.286C533.477 819.634 551.927 812.666 572.706 799.882C603.656 780.84 632.084 758.85 659.673 735.251C666.919 729.053 673.185 721.435 680.533 715.526C682.576 713.883 685.299 708.362 687.305 707.791L687.264 709.45C679.256 727.174 644.258 756.286 628.773 768.902C604.561 787.327 567.022 813.851 536.972 819.013C524.469 821.161 509.839 820.709 497.559 817.522C468.742 810.044 436.164 785.479 411.884 768.237C387.412 749.863 360.077 726.864 347.334 698.413Z"/>
	<defs>
		<linearGradient id="gradient_5" gradientUnits="userSpaceOnUse" x1="520.19617" y1="630.12323" x2="517.42114" y2="585.94214">
			<stop offset="0" stop-color="#F48853"/>
			<stop offset="1" stop-color="#FEA76B"/>
		</linearGradient>
	</defs>
	<path fill="url(#gradient_5)" d="M485.188 630.529C484.822 619.54 496.422 600.878 503.905 592.962C507.712 588.935 513.68 585.344 519.337 585.19C525.887 585.012 532.011 589.325 536.486 593.759C544.193 601.397 555.506 618.726 555.293 629.918C555.287 630.215 555.266 630.511 555.253 630.808C553.288 629.143 551.462 628.558 548.964 627.993C539.311 625.809 499.844 626.277 490.007 628.39C488.173 628.784 486.749 629.514 485.188 630.529Z"/>
	<path fill="#DB724F" d="M334.527 601.042C336.507 601.897 338.609 604.541 340.183 606.035C343.553 609.233 346.918 612.383 351.073 614.544C368.22 623.464 398.439 622.214 417.607 621.698C434.686 621.239 453.523 620.421 467.645 609.666C471.939 606.396 475.56 602.354 479.261 598.448C476.482 608.826 467.783 621.417 458.363 626.951C436.665 639.698 383.553 639.458 359.627 632.914C350.671 630.464 341.7 626.316 336.07 618.664C333.682 621.087 331.214 623.466 328.912 625.968L327.816 622.653C327.037 616.866 325.351 611.264 324.774 605.429C328.4 604.509 331.449 603.175 334.527 601.042Z"/>
	<path fill="#FCF1DB" d="M0 0L1024 0L1024 1024L952.576 1024C927.458 996.714 897.291 973.2 865.605 954.009Q852.274 946.014 838.819 938.231C830.147 933.256 819.876 929.055 812.843 921.824C817.961 918.187 822.405 913.971 825.356 908.345C833.636 892.554 821.088 871.543 812.331 858.667C807.839 852.061 802.416 845.66 798.88 838.496C795.075 830.786 794.892 821.515 792.347 813.341C791.111 809.373 789.272 805.448 786.21 802.556C777.874 794.684 742.622 784.238 730.786 780.912C722.503 778.585 713.262 777.061 705.686 772.892C698.58 768.981 695.969 763.452 693.701 756.061L694.957 757.269C702.763 764.871 713.096 768.742 723.878 769.527C745.059 771.07 760.25 763.706 775.933 750.224C762.889 749.518 753.244 744.66 744.054 735.495C754.908 738.439 766.17 737.96 776.376 733.051C767.552 733.933 758.623 733.313 750.536 729.394C741.621 725.073 736.422 718.042 733.208 708.865C751.883 713.321 771.177 712.914 788.989 705.199C805.187 698.182 818.902 684.629 825.488 668.193C822.074 670.006 818.811 671.62 815.073 672.675C807.093 674.927 797.981 674.792 790.704 670.464C783.325 666.076 779.476 659.009 777.396 650.967Q780.214 652.112 783.161 652.866Q786.108 653.62 789.129 653.97C808.215 656.269 824.453 647.933 838.969 636.551C833.597 636.055 828.535 635.43 823.505 633.384C815.63 630.179 809.284 624.455 805.947 616.557Q806.522 615.894 807.081 615.218C822.429 596.55 828.112 579.736 825.921 555.681C828.077 560.978 830.1 566.268 831.224 571.894C834.144 586.509 832.874 602.123 824.513 614.715C828.731 612.267 832.649 609.154 836.143 605.762C848.214 594.042 855.809 577.378 855.946 560.51C856.168 533.134 841.704 514.96 823.37 496.515C831.942 499.156 839.15 502.751 845.508 509.208C856.876 520.754 864.688 538.241 864.54 554.51C870.269 545.326 873.556 536.878 874.895 526.077C877.449 505.481 872.131 486.749 859.497 470.383C863.428 468.113 866.881 465.208 870.051 461.973C883.992 447.745 884.958 431.456 884.752 412.556L883.616 414.793C880.352 421.28 875.721 427.207 869.53 431.144C864.161 434.558 857.868 436.026 851.612 434.499C841.942 432.139 836.106 424.55 831.173 416.523C834.026 415.091 836.854 413.635 839.562 411.938C848.815 406.14 851.934 398.909 854.299 388.707C852.518 390.345 850.596 392.005 848.524 393.271C843.414 396.394 837.32 397.648 831.48 396.057C822.656 393.654 817.211 385.689 813.069 378.114C819.446 379.76 826.421 380.742 833.01 380.151C845.502 379.031 856.442 373.671 864.47 364.022C875.279 351.031 877.643 335.666 876.168 319.274C874.382 321.701 872.556 323.994 870.286 325.986C862.376 332.926 852.322 334.928 842.024 334.254C823.262 333.025 809.555 321.679 797.545 308.135C810.895 303.983 823.387 299.226 830.24 286.104C835.735 275.585 835.869 262.997 832.354 251.86C831.779 255.195 831.05 258.475 829.632 261.562C826.983 267.331 822.498 271.192 816.516 273.237C788.271 282.89 769.013 250.712 751.357 235.157C743.119 227.899 733.988 222.82 724.179 218.065C731.94 217.832 739.237 218.644 746.56 221.346C757.512 225.387 765.243 231.968 770.207 242.58C769.905 239.368 769.6 236.157 768.834 233.016C764.066 213.46 747.679 195.808 730.761 185.735C721.085 179.975 711.118 175.869 700.003 173.917C694.126 172.885 688.088 172.272 682.305 170.791C675.071 168.938 668.653 165.228 661.781 162.453C642.625 154.718 624.426 155.626 604.784 160.638Q606.113 157.037 607.768 153.573Q609.423 150.109 611.39 146.813Q613.357 143.517 615.62 140.416Q617.882 137.315 620.421 134.436C634.592 118.214 652.734 108.546 674.259 107.118C667.797 105.265 661.454 103.745 654.728 103.274C630.014 101.545 607.347 110.847 588.802 126.849C586.548 123.898 583.992 121.379 581.165 118.978C564.829 105.103 544.424 99.9241 523.274 101.717C503.518 103.393 485.582 111.408 472.74 126.709C461.599 122.824 450.648 121.322 438.867 122.554C415.912 124.955 395.443 137.764 381.208 155.625C366.502 174.077 360.3 194.878 362.874 218.261C358.381 213.618 353.1 209.913 347.894 206.129C347.16 201.117 346.771 196.04 347.112 190.978C348.368 172.323 359.099 158.338 372.652 146.444C360.352 149.987 349.731 156.114 342.233 166.696C334.361 177.807 332.521 190.257 334.792 203.458C331.83 202.568 328.746 201.902 325.693 201.418C309.675 198.876 292.111 200.648 278.738 210.508C265.214 220.481 261.211 233.408 258.774 249.285C265.024 239.081 272.457 230.725 284.056 226.519C294.47 222.742 304.503 224.574 314.254 229.207C301.564 232.553 294.023 238.222 284.582 247.015C280.46 250.855 276.365 254.464 271.057 256.549C257.004 262.07 234.501 258.688 220.967 252.919Q221.419 253.721 221.902 254.506C228.083 264.563 236.847 272.273 248.518 275.023Q244.72 276.713 240.994 278.555C220.811 288.735 204.127 308.299 197.314 329.849C192.415 345.347 193.135 359.833 200.622 374.246C199.91 361.761 201.065 351.738 207.857 340.937C217.444 325.691 233.618 316.251 250.93 312.413Q248.158 314.257 245.491 316.249C230.271 327.815 218.545 343.898 215.018 362.903C213.941 368.708 213.879 374.604 213.054 380.436C211.6 390.71 206.05 398.476 197.834 404.6C187.313 412.442 173.442 416.322 160.375 414.339C149.728 412.724 142.552 406.987 136.279 398.572C136.675 408.597 139.134 417.707 144.487 426.253C152.342 438.796 162.156 444.895 176.332 448.214C170.128 454.376 164.482 460.753 160.189 468.423C149.984 486.656 147.489 511.065 153.248 531.103C158.914 550.818 171.551 564.454 189.201 574.19C176.799 561.299 169.299 545.448 167.87 527.503C166.611 511.689 172.18 497.986 182.389 486.082C179.034 493.549 175.3 499.264 174.44 507.63C172.59 525.647 180.124 542.244 193.585 554.06C199.883 559.588 206.957 564.318 212.248 570.908C216.455 576.148 219.392 582.353 218.456 589.234C217.558 595.844 213.225 602.622 207.916 606.594C203.199 610.122 197.605 611.701 191.765 610.699C183.156 609.222 177.99 603.584 173.089 596.931C173.134 605.49 174.774 613.058 179.629 620.247Q180.145 621.026 180.699 621.778Q181.253 622.531 181.844 623.255Q182.435 623.979 183.06 624.673Q183.686 625.367 184.345 626.03Q185.004 626.692 185.695 627.321Q186.386 627.95 187.107 628.544Q187.828 629.138 188.578 629.696Q189.327 630.254 190.103 630.775Q190.88 631.295 191.68 631.776Q192.481 632.257 193.305 632.698Q194.129 633.14 194.973 633.54Q195.818 633.94 196.681 634.297Q197.544 634.655 198.424 634.97Q199.304 635.285 200.198 635.556Q201.092 635.827 201.999 636.053Q202.905 636.28 203.822 636.461C216.029 638.776 227.66 635.69 237.786 628.801C238.086 634.028 238.428 639.33 238.378 644.564C238.277 655.05 235.845 665.057 228.058 672.521C219.9 680.343 208.549 682.601 197.599 682.31C206.533 692.213 217.661 698.598 231.074 699.825C249.04 701.469 259.595 695.594 272.943 684.512Q272.96 685.073 272.969 685.634C273.239 703.093 269.073 713.471 256.833 726.023C262.09 724.283 267.406 722.561 272.461 720.29C277.49 718.031 282.585 714.844 287.874 713.315C294.909 711.281 302.591 712.131 309.843 710.431Q309.333 712.994 308.688 715.527C307.059 721.737 303.322 726.708 297.694 729.862C288.642 734.935 277.383 734.708 267.677 731.976C272.54 742.949 279.28 751.384 289.123 758.364C303.818 768.786 319.886 771.291 337.485 768.232C335.801 770.354 333.457 772.997 331.034 774.276C324.886 777.521 316.725 778.745 309.987 780.613C297.333 784.121 258.036 795.097 250.381 804.184C242.541 813.49 244.528 826.998 239.862 837.652C237.303 843.497 233.138 848.688 229.486 853.887C220.368 866.869 208.348 884.372 210.245 901.068C211.422 911.417 217.679 916.076 225.091 922.187C215.424 931.7 198.14 938.683 186.06 945.56C154.708 963.408 106.328 996.006 84.4415 1024L0 1024L0 0Z"/>
</svg>
