<?xml version="1.0" encoding="utf-8"?>
<!-- Generator: Adobe Illustrator 27.0.0, SVG Export Plug-In . SVG Version: 6.00 Build 0)  -->
<svg version="1.1" id="Calque_1" xmlns="http://www.w3.org/2000/svg" xmlns:xlink="http://www.w3.org/1999/xlink" x="0px" y="0px"
	 viewBox="0 0 123.2 123.2" xml:space="preserve">
<style type="text/css">
	.st0{display:none;}
	.st1{display:inline;}
	.st2{fill:#122237;}
	.st3{fill:#E30615;}
	.st4{fill:#FFFFFF;}
</style>
<g id="Calque_1_00000021806176294008578200000007403596746526273412_" class="st0">
	<g class="st1">
		<g>

		</g>
		<g>
			<path class="st4" d="M152.9,96.1l5.8-16.8h6.7l-9.1,24h-6.9l-9.1-24h6.7L152.9,96.1z"/>
			<path class="st4" d="M198.7,103.3h-19.1v-24h19.1v4.8h-12.9v4.6h10.1v4.8h-10.1v5h12.9V103.3z"/>
			<path class="st4" d="M212.9,79.2h14.4c2.4,0,4.1,0.5,5.2,1.6c1.1,1.1,1.6,2.8,1.6,5.2v0.6c0,1.9-0.3,3.4-0.9,4.4
				c-0.6,1.1-1.6,1.8-3,2.1l4.3,10.1h-6.7l-3.9-9.8h-4.8v9.8h-6.2L212.9,79.2L212.9,79.2z M228.1,86.1c0-1.4-0.7-2.1-2.1-2.1h-6.9
				v4.6h6.9c1.4,0,2.1-0.7,2.1-2.1V86.1z"/>
			<path class="st4" d="M261.2,103.3h-12.4v-4.8h3.1V84h-3.1v-4.8h12.4V84h-3.1v14.4h3.1V103.3z"/>
			<path class="st4" d="M281.6,103.3h-6.2v-24h19.1v4.8h-12.9v4.6h10.1v4.8h-10.1V103.3z"/>
		</g>
		<g>
			<path class="st2" d="M97.7,49.9v10.7c0,18.5-7.4,33.7-22.1,45c-8.5,6.6-17,9.9-20.5,11.1c-3.5-1.2-12-4.5-20.5-11.1
				C20,94.2,12.5,79.1,12.5,60.6V28.3C35.8,27,48.6,18.1,55.1,11.4c3.9,4,10,8.8,19.3,12.3c3.4-3.9,7-7.7,10.6-11.4
				C66.1,6.1,55.2-4.9,55.1-5.1C55-4.8,34.1,16.2,0,16.2l0.2,44.4c0,22.2,9.3,41.1,26.8,54.7c13.1,10.1,26.1,13.7,26.6,13.8
				s1,0.2,1.5,0.2s1-0.1,1.5-0.2c0.5-0.1,13.6-3.7,26.6-13.8c17.5-13.6,26.8-32.5,26.8-54.7l0.2-30.4
				C105.7,36.5,101.6,43.1,97.7,49.9z"/>
			<g>
				<path class="st3" d="M125-1.4c-34.9,37.5-52.7,84-57.4,97.3c-0.8,2.3-2.8,3.9-5.2,4.3l-7,1c-2.7,0.4-5.3-0.9-6.6-3.3
					c-8.9-16.3-21-30.3-26.4-36.1c-1.5-1.7-1.6-4.2-0.1-5.9C23.1,55,24,54.1,25,53c2.5-2.5,6.4-2.9,9.3-0.9
					c5.1,3.5,13.4,9.6,19.2,15.6c0,0,16.4-36.4,63-72.7c2.3-1.8,5.6-1.9,8.1-0.3l0,0C125.9-4.3,126.1-2.5,125-1.4z"/>
			</g>
		</g>
	</g>
</g>
<g id="Calque_2_00000147935687012748606830000000112548352471834798_">
	<g>
		<g>
			<path class="st4" d="M83.3,53.9v21.5c0,1.6-0.7,5-1,5.7c-1.5,4.5-9.6,14.1-20.5,22.5c-10.1,7.8-13.3,9.4-15.1,9.4
				s-5-1.6-15.1-9.4c-10.9-8.4-19-18.1-20.5-22.5c-0.2-0.8-1-4.2-1-5.7V25.3c0-3.3,0.8-4.1,3.1-5.5c3.3-1.7,23.8-3.4,33.5-3.4
				c7.1,0,20.1,0.9,27.7,2.1c0.4-0.4,0.9-0.8,1.3-1.3c2-1.9,4.6-4.4,7.5-7.2c-9.8-3.4-36.3-3.9-36.5-3.9C46.5,6.2,15,6.8,8,11.1
				c-4,2.4-8,6-8,14.2v50.1c0,3.3,1.2,8.2,1.5,8.9c2.8,8.3,14,19.8,23.9,27.4c11.7,9,16.3,11.5,21.4,11.5s9.7-2.5,21.4-11.5
				c9.9-7.7,21.2-19.1,23.9-27.4c0.3-1,1.5-5.8,1.5-9V38.7C90,43.7,86.6,48.7,83.3,53.9z"/>
		</g>
		<path class="st3" d="M113.9,4.8C80.3,36.9,61.7,78,56.8,89.7c-0.8,2-2.7,3.4-4.9,3.6l-6.4,0.5c-2.4,0.2-4.7-1.1-5.8-3.3
			c-7.2-15.2-17.4-28.6-21.9-34.1c-1.3-1.6-1.2-3.9,0.3-5.4c0.7-0.7,1.6-1.6,2.6-2.4c2.4-2.1,5.9-2.2,8.5-0.3
			c4.5,3.5,11.6,9.4,16.5,15.1c0,0,16.8-32.1,60.9-62.4c2.2-1.5,5.2-1.5,7.3,0.2l0,0C114.9,2.2,114.9,3.8,113.9,4.8z"/>
	</g>
</g>
</svg>
