<?xml version="1.0" encoding="UTF-8"?>
<svg id="Calque_1" xmlns="http://www.w3.org/2000/svg" version="1.1" viewBox="0 0 77.8 77.7">
  <!-- Generator: Adobe Illustrator 29.1.0, SVG Export Plug-In . SVG Version: 2.1.0 Build 142)  -->
  <defs>
    <style>
      .st0 {
        fill: #a21a2d;
      }

      .st1 {
        fill: #fff;
        stroke: #a21a2d;
        stroke-miterlimit: 10;
      }
    </style>
  </defs>
  <circle class="st1" cx="38.9" cy="38.9" r="38.9"/>
  <path class="st0" d="M45.7,59.4L22.7,18.4l-2.1.6L1.7,50.4C-10.5,6.8,46.1-19.5,71.7,17.8l-22.7,17.5-15.9-11.9c-.7-.2-.7,1-.5,1.5.6,1.4,6.6,11.4,7.6,12.4.7.8,7.5,5.8,8.1,5.9l17.3-11.8v21h-16l3,7h19c.4,1.8-.7,2-1.5,3-16.5,21.6-50.8,20.3-64.5-3.5l15-27.5,2,.6,10.9,20.4H15.7l-3,7h33Z"/>
  <path class="st0" d="M72.7,20.4c1.5.2,2.3,3.5,2.8,4.7,3.1,8.6,3.1,17.3.5,26-.5,1.7-1.6,5.5-3.3,6.2V20.4Z"/>
</svg>